<svg width="1576" height="321" viewBox="0 0 1576 321" fill="none" xmlns="http://www.w3.org/2000/svg">
<path d="M0.75 74.3784L50.1038 112.203C76.3321 77.9629 104.192 62.1938 135.209 62.1938C166.065 62.1938 193.123 77.789 218.174 111.735L268.25 74.8331C232.111 25.8806 187.211 0 135.209 0C83.3808 0 38.0395 25.7068 0.75 74.3784ZM135.035 238.744L47.188 163.041L6.5815 210.121L135.236 321L262.873 210.041L222.079 163.108L135.035 238.744Z" fill="white"/>
<path d="M523.986 266.799C521.94 260.103 519.615 253.221 517.011 246.153C514.593 239.085 512.175 232.017 509.757 224.949H434.427C432.009 232.017 429.498 239.085 426.894 246.153C424.476 253.221 422.244 260.103 420.198 266.799H375C382.254 245.967 389.136 226.716 395.646 209.046C402.156 191.376 408.48 174.729 414.618 159.105C420.942 143.481 427.08 128.694 433.032 114.744C439.17 100.608 445.494 86.844 452.004 73.452H493.575C499.899 86.844 506.13 100.608 512.268 114.744C518.406 128.694 524.544 143.481 530.682 159.105C537.006 174.729 543.423 191.376 549.933 209.046C556.443 226.716 563.325 245.967 570.579 266.799H523.986ZM471.813 117.255C470.883 120.045 469.488 123.858 467.628 128.694C465.768 133.53 463.629 139.11 461.211 145.434C458.793 151.758 456.096 158.733 453.12 166.359C450.33 173.985 447.447 181.983 444.471 190.353H499.434C496.458 181.983 493.575 173.985 490.785 166.359C487.995 158.733 485.298 151.758 482.694 145.434C480.276 139.11 478.137 133.53 476.277 128.694C474.417 123.858 472.929 120.045 471.813 117.255Z" fill="white"/>
<path d="M718.087 261.777C711.019 263.823 701.905 265.683 690.745 267.357C679.585 269.217 667.867 270.147 655.591 270.147C643.129 270.147 632.713 268.473 624.343 265.125C616.159 261.777 609.649 257.127 604.813 251.175C599.977 245.037 596.536 237.783 594.49 229.413C592.444 221.043 591.421 211.836 591.421 201.792V120.045H632.992V196.77C632.992 210.162 634.759 219.834 638.293 225.786C641.827 231.738 648.43 234.714 658.102 234.714C661.078 234.714 664.24 234.621 667.588 234.435C670.936 234.063 673.912 233.691 676.516 233.319V120.045H718.087V261.777Z" fill="white"/>
<path d="M815.7 269.589C803.61 269.403 793.752 268.101 786.126 265.683C778.686 263.265 772.734 259.917 768.27 255.639C763.992 251.175 761.016 245.874 759.342 239.736C757.854 233.412 757.11 226.344 757.11 218.532V56.991L798.681 50.295V210.162C798.681 213.882 798.96 217.23 799.518 220.206C800.076 223.182 801.099 225.693 802.587 227.739C804.261 229.785 806.586 231.459 809.562 232.761C812.538 234.063 816.537 234.9 821.559 235.272L815.7 269.589Z" fill="white"/>
<path d="M905.553 237.783C909.645 237.783 913.551 237.69 917.271 237.504C920.991 237.318 923.967 237.039 926.199 236.667V205.14C924.525 204.768 922.014 204.396 918.666 204.024C915.318 203.652 912.249 203.466 909.459 203.466C905.553 203.466 901.833 203.745 898.299 204.303C894.951 204.675 891.975 205.512 889.371 206.814C886.767 208.116 884.721 209.883 883.233 212.115C881.745 214.347 881.001 217.137 881.001 220.485C881.001 226.995 883.14 231.552 887.418 234.156C891.882 236.574 897.927 237.783 905.553 237.783ZM902.205 116.139C914.481 116.139 924.711 117.534 932.895 120.324C941.079 123.114 947.589 127.113 952.425 132.321C957.447 137.529 960.981 143.853 963.027 151.293C965.073 158.733 966.096 167.01 966.096 176.124V262.614C960.144 263.916 951.867 265.404 941.265 267.078C930.663 268.938 917.829 269.868 902.763 269.868C893.277 269.868 884.628 269.031 876.816 267.357C869.19 265.683 862.587 262.986 857.007 259.266C851.427 255.36 847.149 250.338 844.173 244.2C841.197 238.062 839.709 230.529 839.709 221.601C839.709 213.045 841.383 205.791 844.731 199.839C848.265 193.887 852.915 189.144 858.681 185.61C864.447 182.076 871.05 179.565 878.49 178.077C885.93 176.403 893.649 175.566 901.647 175.566C907.041 175.566 911.784 175.845 915.876 176.403C920.154 176.775 923.595 177.333 926.199 178.077V174.171C926.199 167.103 924.06 161.43 919.782 157.152C915.504 152.874 908.064 150.735 897.462 150.735C890.394 150.735 883.419 151.293 876.537 152.409C869.655 153.339 863.703 154.734 858.681 156.594L853.38 123.114C855.798 122.37 858.774 121.626 862.308 120.882C866.028 119.952 870.027 119.208 874.305 118.65C878.583 117.906 883.047 117.348 887.697 116.976C892.533 116.418 897.369 116.139 902.205 116.139Z" fill="white"/>
<path d="M1097.71 192.306C1097.71 165.522 1087.85 152.13 1068.14 152.13C1063.86 152.13 1059.58 152.688 1055.3 153.804C1051.21 154.92 1047.86 156.315 1045.26 157.989V233.598C1047.3 233.97 1049.91 234.342 1053.07 234.714C1056.23 234.9 1059.67 234.993 1063.39 234.993C1074.74 234.993 1083.3 231.087 1089.06 223.275C1094.83 215.463 1097.71 205.14 1097.71 192.306ZM1140.12 193.422C1140.12 205.14 1138.35 215.742 1134.82 225.228C1131.47 234.714 1126.54 242.805 1120.03 249.501C1113.52 256.197 1105.52 261.405 1096.04 265.125C1086.55 268.659 1075.76 270.426 1063.67 270.426C1058.65 270.426 1053.35 270.147 1047.77 269.589C1042.38 269.217 1036.98 268.659 1031.59 267.915C1026.38 267.171 1021.36 266.334 1016.52 265.404C1011.69 264.288 1007.41 263.172 1003.69 262.056V56.991L1045.26 50.295V123.393C1049.91 121.347 1054.74 119.766 1059.77 118.65C1064.79 117.534 1070.18 116.976 1075.95 116.976C1086.36 116.976 1095.57 118.836 1103.57 122.556C1111.57 126.09 1118.26 131.205 1123.66 137.901C1129.05 144.597 1133.14 152.688 1135.93 162.174C1138.72 171.474 1140.12 181.89 1140.12 193.422Z" fill="white"/>
<path d="M1228.15 237.783C1232.24 237.783 1236.15 237.69 1239.87 237.504C1243.59 237.318 1246.56 237.039 1248.79 236.667V205.14C1247.12 204.768 1244.61 204.396 1241.26 204.024C1237.91 203.652 1234.84 203.466 1232.05 203.466C1228.15 203.466 1224.43 203.745 1220.89 204.303C1217.55 204.675 1214.57 205.512 1211.97 206.814C1209.36 208.116 1207.32 209.883 1205.83 212.115C1204.34 214.347 1203.6 217.137 1203.6 220.485C1203.6 226.995 1205.73 231.552 1210.01 234.156C1214.48 236.574 1220.52 237.783 1228.15 237.783ZM1224.8 116.139C1237.08 116.139 1247.31 117.534 1255.49 120.324C1263.67 123.114 1270.18 127.113 1275.02 132.321C1280.04 137.529 1283.58 143.853 1285.62 151.293C1287.67 158.733 1288.69 167.01 1288.69 176.124V262.614C1282.74 263.916 1274.46 265.404 1263.86 267.078C1253.26 268.938 1240.42 269.868 1225.36 269.868C1215.87 269.868 1207.22 269.031 1199.41 267.357C1191.78 265.683 1185.18 262.986 1179.6 259.266C1174.02 255.36 1169.74 250.338 1166.77 244.2C1163.79 238.062 1162.3 230.529 1162.3 221.601C1162.3 213.045 1163.98 205.791 1167.33 199.839C1170.86 193.887 1175.51 189.144 1181.28 185.61C1187.04 182.076 1193.64 179.565 1201.08 178.077C1208.52 176.403 1216.24 175.566 1224.24 175.566C1229.64 175.566 1234.38 175.845 1238.47 176.403C1242.75 176.775 1246.19 177.333 1248.79 178.077V174.171C1248.79 167.103 1246.65 161.43 1242.38 157.152C1238.1 152.874 1230.66 150.735 1220.06 150.735C1212.99 150.735 1206.01 151.293 1199.13 152.409C1192.25 153.339 1186.3 154.734 1181.28 156.594L1175.97 123.114C1178.39 122.37 1181.37 121.626 1184.9 120.882C1188.62 119.952 1192.62 119.208 1196.9 118.65C1201.18 117.906 1205.64 117.348 1210.29 116.976C1215.13 116.418 1219.96 116.139 1224.8 116.139Z" fill="white"/>
<path d="M1319.31 193.422C1319.31 182.82 1320.98 172.869 1324.33 163.569C1327.86 154.083 1332.88 145.899 1339.39 139.017C1345.9 131.949 1353.81 126.369 1363.11 122.277C1372.41 118.185 1383.01 116.139 1394.92 116.139C1402.73 116.139 1409.89 116.883 1416.4 118.371C1422.91 119.673 1429.23 121.626 1435.37 124.23L1426.72 157.431C1422.82 155.943 1418.54 154.641 1413.89 153.525C1409.24 152.409 1404.03 151.851 1398.26 151.851C1385.99 151.851 1376.78 155.664 1370.64 163.29C1364.69 170.916 1361.71 180.96 1361.71 193.422C1361.71 206.628 1364.5 216.858 1370.08 224.112C1375.85 231.366 1385.8 234.993 1399.94 234.993C1404.96 234.993 1410.35 234.528 1416.12 233.598C1421.89 232.668 1427.19 231.18 1432.02 229.134L1437.88 263.172C1433.04 265.218 1427 266.985 1419.75 268.473C1412.49 269.961 1404.49 270.705 1395.75 270.705C1382.36 270.705 1370.83 268.752 1361.16 264.846C1351.48 260.754 1343.49 255.267 1337.16 248.385C1331.02 241.503 1326.47 233.412 1323.49 224.112C1320.7 214.626 1319.31 204.396 1319.31 193.422Z" fill="white"/>
<path d="M1514.78 237.783C1518.87 237.783 1522.77 237.69 1526.49 237.504C1530.21 237.318 1533.19 237.039 1535.42 236.667V205.14C1533.75 204.768 1531.24 204.396 1527.89 204.024C1524.54 203.652 1521.47 203.466 1518.68 203.466C1514.78 203.466 1511.06 203.745 1507.52 204.303C1504.17 204.675 1501.2 205.512 1498.59 206.814C1495.99 208.116 1493.94 209.883 1492.46 212.115C1490.97 214.347 1490.22 217.137 1490.22 220.485C1490.22 226.995 1492.36 231.552 1496.64 234.156C1501.1 236.574 1507.15 237.783 1514.78 237.783ZM1511.43 116.139C1523.7 116.139 1533.93 117.534 1542.12 120.324C1550.3 123.114 1556.81 127.113 1561.65 132.321C1566.67 137.529 1570.2 143.853 1572.25 151.293C1574.3 158.733 1575.32 167.01 1575.32 176.124V262.614C1569.37 263.916 1561.09 265.404 1550.49 267.078C1539.89 268.938 1527.05 269.868 1511.99 269.868C1502.5 269.868 1493.85 269.031 1486.04 267.357C1478.41 265.683 1471.81 262.986 1466.23 259.266C1460.65 255.36 1456.37 250.338 1453.4 244.2C1450.42 238.062 1448.93 230.529 1448.93 221.601C1448.93 213.045 1450.61 205.791 1453.95 199.839C1457.49 193.887 1462.14 189.144 1467.9 185.61C1473.67 182.076 1480.27 179.565 1487.71 178.077C1495.15 176.403 1502.87 175.566 1510.87 175.566C1516.26 175.566 1521.01 175.845 1525.1 176.403C1529.38 176.775 1532.82 177.333 1535.42 178.077V174.171C1535.42 167.103 1533.28 161.43 1529.01 157.152C1524.73 152.874 1517.29 150.735 1506.69 150.735C1499.62 150.735 1492.64 151.293 1485.76 152.409C1478.88 153.339 1472.93 154.734 1467.9 156.594L1462.6 123.114C1465.02 122.37 1468 121.626 1471.53 120.882C1475.25 119.952 1479.25 119.208 1483.53 118.65C1487.81 117.906 1492.27 117.348 1496.92 116.976C1501.76 116.418 1506.59 116.139 1511.43 116.139Z" fill="white"/>
</svg>
