<svg width="536" height="621" viewBox="0 0 536 621" fill="none" xmlns="http://www.w3.org/2000/svg">
<path fill-rule="evenodd" clip-rule="evenodd" d="M141.049 139.251C140.46 149.626 139.871 160.092 139.282 170.467C143.067 169.295 167.371 161.626 165.857 169.385C164.764 174.979 157.952 181.023 154.504 184.903C151.308 188.512 148.028 191.94 144.665 195.368C150.888 192.842 157.111 190.406 163.418 188.151C168.212 186.437 173.005 184.813 177.883 183.459C179.733 183.008 184.61 181.023 186.292 182.377C190.833 185.895 166.361 211.518 162.998 215.127C167.738 212.744 172.595 210.635 177.546 208.811C181.078 207.458 192.095 202.406 195.29 206.736C198.654 211.338 190.329 222.074 187.974 225.412C184.67 230.264 181.104 234.903 177.294 239.306C193.02 254.463 211.437 267.906 231.031 276.297C245.412 282.432 259.54 283.966 274.761 280.627C290.403 277.199 305.288 270.523 319.584 262.944C327.983 258.52 336.152 253.61 344.056 248.238C340.861 243.998 337.665 239.667 334.637 235.336C330.264 229.111 324.882 222.254 322.444 214.766C320.005 207.458 329.171 208.902 333.544 209.263C339.884 209.89 346.178 210.975 352.382 212.51C348.009 209.263 343.636 205.834 339.431 202.315C333.881 197.714 326.564 192.572 322.948 185.985C319.752 180.211 326.732 181.655 329.928 182.377C337.581 184.181 345.065 187.249 352.382 190.316C357.764 192.481 363.062 194.827 368.36 197.263C365.08 194.196 361.885 191.038 358.857 187.7C354.736 183.279 349.27 177.775 347.42 171.64C343.72 159.1 368.78 168.573 373.069 170.467C372.312 157.476 371.472 144.574 370.715 131.582C337.497 141.055 304.251 150.559 270.977 160.092C267.361 161.084 262.904 163.34 259.119 163.43C255.755 163.52 251.635 161.896 248.355 161.265L188.226 148.905C172.416 145.657 156.69 142.499 141.049 139.251" fill="#FFBA15"/>
<path fill-rule="evenodd" clip-rule="evenodd" d="M498.204 584.693C494.476 586.862 490.525 588.557 486.431 589.746C484.076 590.377 480.208 592.452 478.189 590.558C477.18 589.655 477.012 587.58 476.423 586.407C475.399 584.572 474.247 582.823 472.975 581.175C470.032 577.115 466.92 573.145 463.641 569.356C462.127 567.551 459.268 563.311 456.577 563.582C453.213 563.942 453.297 568.905 454.138 571.521C456.829 579.641 464.986 586.768 470.284 592.903C468.939 595.159 461.538 594.888 459.436 594.347C456.324 593.535 455.988 591.099 454.558 588.392C451.195 581.987 444.383 578.378 438.748 574.589C436.73 573.235 432.357 569.356 429.666 570.348C427.143 571.25 427.227 574.679 428.068 576.934C429.245 580.363 432.778 582.708 435.3 584.874C438.711 587.708 441.839 590.912 444.635 594.437C440.514 594.798 436.478 595.43 432.357 595.79C427.395 596.242 423.275 593.355 418.734 591.64C414.529 590.107 410.324 588.843 406.119 587.039C401.494 585.054 396.532 584.332 391.907 582.618C373.49 575.761 355.325 567.19 337.581 558.529C329.087 554.379 320.846 550.319 311.932 547.071C305.456 544.725 295.365 540.034 293.851 531.824C293.01 527.493 296.037 522.802 296.458 518.471C296.984 513.224 296.527 507.917 295.112 502.863C293.851 498.532 291.749 494.562 290.067 490.412C288.132 485.54 289.898 485.631 293.683 485.089C298.224 484.458 303.522 481.661 307.727 479.947C312.67 477.784 317.426 475.157 321.939 472.097C325.926 469.322 329.571 466.018 332.787 462.263C336.067 458.474 338.17 453.963 341.365 450.083C353.055 465.511 364.239 481.21 376.686 496.006C382.505 502.823 389.054 508.879 396.196 514.05C399.223 516.306 402.251 518.832 405.53 520.546C409.651 522.711 414.276 524.065 418.481 526.14C434.64 533.68 450.317 542.361 465.407 552.123C472.723 556.905 478.862 562.409 485.338 568.454C487.356 570.348 503.839 581.265 498.204 584.693V584.693ZM307.727 458.023C305.12 459.286 302.597 461 299.822 461.812C300.579 456.67 305.12 448.82 310.922 449.632C313.109 449.993 314.791 451.798 313.866 454.324C312.857 456.579 309.577 457.121 307.727 458.023ZM124.986 317.458C122.043 319.263 119.268 320.255 117.502 316.466C118.763 316.195 124.65 315.293 124.986 317.458ZM120.024 306.722C117.754 306 119.604 305.188 120.361 304.286C121.396 302.995 122.521 301.788 123.725 300.677C126.92 298.873 129.275 305.549 130.789 307.715C127.257 307.444 123.557 307.895 120.024 306.722ZM144.665 329.819C140.292 330.631 140.796 324.766 140.88 321.789C141.805 323.052 148.028 329.187 144.665 329.819ZM159.045 319.714C153.747 320.706 150.215 310.782 151.14 306.542C151.981 302.752 156.102 300.587 159.381 300.046C162.577 299.504 166.95 300.226 167.959 304.196C168.8 307.624 162.661 319.082 159.045 319.714ZM284.853 468.398C281.068 469.661 277.284 469.842 273.416 471.015C269.043 472.458 265.006 472.278 260.633 473.27C258.867 473.631 254.074 476.428 252.308 475.796C250.626 475.165 248.103 469.481 247.094 467.947C254.83 464.519 261.39 460.098 266.52 452.79C270.556 447.016 274.929 438.355 272.322 430.957C269.463 422.566 259.54 420.762 252.98 424.28C249.782 425.906 246.81 428.001 244.15 430.505C241.207 433.392 240.029 436.55 238.179 440.069C236.245 443.678 234.9 441.693 232.965 438.625C231.284 436.009 231.536 433.393 229.518 430.776C228.508 429.423 226.826 428.16 226.322 426.445C225.985 425.363 226.742 423.468 226.07 422.566C225.145 421.393 224.051 422.746 223.21 421.754C222.622 420.942 222.79 419.228 222.285 418.235C221.762 417.705 221.2 417.223 220.603 416.792C219.846 416.431 219.678 415.89 220.183 415.258C219.594 414.085 220.183 413.634 218.837 412.191C216.843 410.077 215.093 407.714 213.623 405.153C212.951 403.89 213.035 402.086 212.194 401.093C211.1 399.65 209.25 399.83 208.241 398.026C207.4 396.402 207.989 393.605 206.559 392.161C205.802 391.891 205.046 391.71 204.373 391.53C203.829 390.979 203.473 390.248 203.364 389.455C202.607 388.192 202.439 386.658 201.429 385.305C199.579 382.688 197.056 380.343 195.375 377.546C193.609 374.659 194.534 374.207 197.561 373.125C200.251 372.334 202.847 371.214 205.298 369.787C216.987 362.479 228.172 343.081 209.503 337.127C202.607 334.961 196.888 329.007 189.236 331.352C185.883 332.455 182.826 334.404 180.321 337.036C178.639 338.841 177.042 343.532 174.939 344.434C171.155 346.058 172.753 341.999 171.659 340.104C171.155 339.202 169.052 338.209 168.296 337.397C167.368 336.41 166.575 335.286 165.941 334.059C165.036 332.148 163.842 330.41 162.409 328.916C161.82 328.285 158.625 324.766 161.484 325.217C160.306 321.518 161.988 320.887 164.343 318.18C167.034 314.932 169.893 310.511 169.893 306C169.893 297.339 160.391 293.46 154.42 298.602C153.242 299.685 146.01 309.699 147.44 303.294C148.197 299.865 155.597 290.753 159.045 293.099C155.177 287.144 146.431 301.67 144.412 304.647C142.646 301.219 142.562 298.512 139.619 295.805C137.264 299.865 138.526 295.444 138.021 294.542C136.928 292.557 137.516 294.813 136.928 294.091C136.171 293.189 134.994 292.557 134.153 291.385C132.807 293.369 133.312 291.204 132.891 290.482C131.882 288.768 132.303 287.685 130.621 286.152C129.359 285.069 126.92 283.355 125.323 283.174C123.388 282.994 122.884 283.806 120.95 283.174C118.511 282.453 115.315 281.28 116.577 285.791C117.418 289.039 121.034 290.843 121.791 294.181C122.547 297.52 119.52 300.858 118.006 303.564C116.072 307.083 114.558 306.812 111.11 307.534C108.924 308.075 105.98 309.158 107.831 311.955C109.176 314.03 112.372 313.579 114.138 314.752C116.661 316.466 116.577 320.706 119.772 321.428C123.304 322.24 125.323 318 128.266 317.007C130.368 316.286 136.928 316.376 138.61 318.09C140.88 320.436 138.946 324.857 139.451 327.744C140.292 331.984 142.983 332.255 146.431 332.435C150.635 332.616 152.065 336.946 154.336 340.375C159.634 348.404 164.175 356.975 169.641 364.915C171.996 368.433 175.528 371.501 177.462 375.38C179.901 380.072 176.537 382.778 173.594 386.207C169.809 390.628 166.95 395.59 163.67 400.462C160.727 404.702 157.111 403.71 152.486 403.71C153.495 401.364 154.756 400.011 157.363 400.281C154.672 396.763 152.57 400.823 150.804 402.988C148.281 406.236 145.001 406.958 141.805 409.123C140.628 409.845 134.405 414.717 136.339 416.341C136.591 416.521 146.851 409.303 148.028 408.582C148.028 411.288 147.44 414.085 147.86 416.702C148.113 418.686 149.374 420.671 149.122 422.746C148.617 426.626 143.992 429.603 141.974 432.581C140.46 434.836 140.88 436.64 140.039 438.986C139.367 441.152 139.703 440.52 138.021 441.242C134.489 442.595 128.602 441.873 125.407 439.888C123.388 438.625 121.875 436.731 120.277 435.016C119.099 433.753 115.988 431.498 115.652 429.693C115.063 426.626 120.781 420.852 121.959 417.694C125.154 408.672 119.688 401.635 111.11 401.184C113.717 399.018 116.997 400.642 119.772 401.454C115.063 394.417 106.906 400.191 102.869 404.973C100.094 397.485 98.8323 389.635 97.1504 381.876C95.973 376.553 91.6841 367.17 93.6184 361.667C94.5434 359.05 97.2345 357.517 99.0846 355.712C101.152 353.59 102.96 351.195 104.467 348.585C108.083 342.54 110.101 334.871 105.224 328.916L109.765 328.104C107.326 325.669 103.458 326.841 100.262 326.12C98.2436 325.669 92.441 325.939 91.0955 324.766C89.4977 323.323 90.5068 316.556 90.5909 314.571C90.7591 309.88 91.0955 305.369 91.6001 300.767C92.0205 296.347 91.9364 291.655 92.7774 287.325C93.4502 283.806 95.6367 282.723 98.1595 280.738C104.214 275.776 109.176 269.822 107.074 261.341C107.831 261.251 108.503 261.07 109.26 260.98C106.906 259.176 103.794 259.807 101.187 258.815C103.626 251.507 108.924 238.695 117.67 237.974C118.006 241.222 117.754 245.101 119.856 247.808C122.211 250.875 126.332 251.236 129.443 249.522C132.452 247.83 134.871 245.14 136.339 241.853C137.264 239.778 137.096 236.259 138.61 234.545C140.712 232.29 155.261 233.643 154.84 237.432C154.588 239.598 150.72 243.387 149.626 245.282C147.556 248.82 146.102 252.733 145.337 256.83C144.244 263.055 144.833 271.355 150.804 274.603C157.531 278.302 165.689 273.611 171.239 269.461C174.282 267.174 177.202 264.704 179.985 262.063C181.516 260.707 182.95 259.229 184.274 257.642C185.199 256.469 186.04 254.574 187.217 253.762C189.992 251.687 192.768 255.206 195.122 257.01C198.912 259.907 202.842 262.587 206.896 265.04C215.305 269.912 222.958 276.318 230.358 282.723C237.843 289.129 245.496 295.805 251.551 303.835C247.935 306.271 248.523 306.903 246.925 311.143C245.748 314.21 244.15 316.827 243.982 320.165C243.8 322.951 244.558 325.714 246.118 327.95C247.677 330.186 249.933 331.746 252.476 332.345C255.377 332.997 258.398 332.584 261.054 331.172C263.156 330.18 265.342 327.653 267.529 327.022C271.65 325.849 275.013 334.33 277.368 337.307C287.712 350.479 298.644 363.11 308.4 376.914C309.493 378.448 312.688 381.425 312.941 383.41C313.277 386.297 309.072 389.094 307.306 390.718C306.381 391.62 296.626 401.454 299.906 402.988C300.831 403.439 303.606 397.394 304.279 396.853C306.886 394.868 304.868 398.748 304.783 400.642C304.363 405.424 307.474 408.04 311.763 407.409C316.389 406.777 320.425 402.898 323.285 399.199C326.817 403.62 332.367 410.296 333.46 416.251C334.133 420.04 331.105 429.242 336.74 430.054C337.581 430.145 340.777 427.709 341.365 429.062C341.87 430.235 338.422 432.31 338.001 432.671C336.134 434.298 334.441 436.144 332.956 438.174C330.937 440.52 328.246 442.595 326.06 444.851C323.705 447.287 319.08 453.782 315.968 450.625C314.37 449.001 314.791 446.926 312.352 446.023C310.081 445.211 307.222 446.294 305.12 447.196C302.765 448.279 294.944 452.068 294.019 455.316C292.842 459.737 299.317 454.414 300.41 453.692C299.065 457.301 298.392 462.444 295.028 464.519C291.917 466.413 287.88 467.406 284.853 468.398V468.398ZM240.45 441.422C242.636 433.753 255.755 420.13 264.081 424.37C254.41 426.536 246.757 433.573 240.45 441.422ZM245.412 463.346C242.216 461.451 242.384 455.767 241.207 452.519C240.534 450.625 239.273 449.271 239.609 447.196C240.03 444.76 242.973 442.054 244.487 440.249C249.364 434.656 257.942 427.077 265.763 428.34C275.77 429.964 268.959 444.399 265.595 449.271C262.82 453.512 251.635 467.045 245.412 463.346V463.346ZM222.033 453.963C211.185 453.151 200.42 452.158 189.824 449.993C186.04 449.271 182.844 449.362 185.031 444.67C185.703 443.136 190.076 433.483 191.002 433.753C191.59 433.934 191.422 440.52 191.59 441.332C192.347 444.76 194.534 447.918 198.15 447.738C204.036 447.377 207.905 439.167 211.016 434.746C213.539 438.355 215.305 442.324 217.828 445.843C219.005 447.557 223.21 451.527 222.033 453.963V453.963ZM158.709 408.491C156.859 412.912 153.242 417.243 150.72 421.213C149.29 417.965 148.281 410.476 151.645 408.04C152.99 407.138 159.886 405.604 158.709 408.491ZM196.215 421.754C196.72 420.04 197.309 418.326 197.897 416.702C198.907 420.22 199.495 420.31 196.215 421.754ZM205.466 425.363C206.812 427.709 208.998 430.054 208.662 433.122C208.409 435.377 206.475 437.723 205.13 439.257C202.859 441.873 197.897 446.926 194.618 443.407C191.842 440.52 192.852 432.49 194.113 429.242C195.795 424.641 202.354 419.679 205.466 425.363V425.363ZM198.991 420.491C199.747 420.13 198.15 414.987 199.663 414.446C200.925 417.604 202.186 418.416 198.991 420.491ZM178.387 350.479C177.883 348.585 176.789 348.675 177.21 346.239C177.462 344.705 178.639 342.991 179.48 341.818C181.277 339.362 183.506 337.309 186.04 335.773C191.254 332.525 198.486 331.172 203.195 336.224C198.822 336.946 185.367 341.638 185.283 348.043C190.161 347.051 194.029 341.818 198.907 340.104C202.942 338.764 207.269 338.827 211.269 340.284C222.201 344.254 217.66 354.359 211.521 360.945C207.837 364.8 203.459 367.808 198.654 369.787C196.825 370.634 194.79 370.824 192.852 370.328C192.431 370.238 191.927 369.426 191.506 369.245C190.245 368.794 190.665 370.238 189.656 369.606C188.815 369.065 186.881 365.276 186.292 364.283C185.367 362.569 184.863 360.945 183.769 359.411C182.592 357.877 182.003 355.802 180.994 354.359C180.49 353.727 179.06 353.727 178.639 353.096C177.883 352.194 178.639 351.472 178.387 350.479V350.479ZM161.568 426.085C164.091 421.483 168.296 417.514 171.575 413.454C171.828 420.13 167.371 424.731 161.568 426.085ZM164.932 428.25C170.062 426.355 172.921 421.664 173.425 416.07C174.098 408.943 178.219 405.244 180.742 398.838C181.667 396.402 182.844 388.282 186.544 390.628C187.806 391.44 188.563 394.417 189.236 395.77C190.833 399.018 192.683 402.176 194.365 405.424C195.795 408.04 197.813 410.657 197.225 413.815C196.72 416.521 194.954 419.498 193.945 422.025C191.59 428.069 188.395 433.753 185.788 439.708C184.694 442.144 183.517 447.828 180.237 447.738C177.714 447.738 177.967 444.76 176.285 443.678C174.182 442.415 171.744 444.851 169.978 445.843C170.886 444.077 172.273 442.649 173.955 441.747C175.637 440.845 177.534 440.511 179.396 440.791C174.687 435.738 171.491 442.595 167.455 444.039C163.586 445.482 156.774 438.716 153.579 436.821C154.84 434.565 155.933 431.859 158.036 430.325C160.222 428.881 162.745 429.062 164.932 428.25V428.25ZM123.136 474.353C123.725 471.466 125.323 469.752 126.332 467.135C127.509 470.293 124.734 472.188 123.136 474.353ZM204.793 492.217C204.541 501.961 203.784 511.795 203.532 521.539C203.448 526.05 202.691 530.38 202.186 534.801C201.766 538.59 202.018 542.289 199.748 545.537C196.215 550.59 189.488 552.123 184.19 553.928C180.321 555.281 176.369 556.544 172.584 558.078C169.137 559.431 166.361 561.597 163.082 563.221C160.138 564.664 157.027 565.566 154.083 567.1C151.056 568.724 148.701 570.709 145.59 572.153C141.889 573.867 138.862 576.934 135.582 579.37C132.723 581.536 129.611 583.16 127.089 585.866C124.734 588.392 121.791 589.475 119.184 591.731C116.404 593.929 113.449 595.861 110.353 597.505C104.046 601.294 95.4685 607.88 87.8157 604.181C90.0022 601.204 94.4593 598.317 94.7957 594.167C95.2162 588.843 90.8432 590.738 88.4044 592.452C84.6201 595.069 82.4336 598.136 79.5743 601.655C76.2105 605.715 71.9216 603.008 67.7168 601.835C70.5761 599.129 73.3512 596.332 76.2105 593.535C78.5652 591.189 82.2654 588.663 83.695 585.505C84.7042 583.25 84.7042 580.092 82.1813 578.829C79.4061 577.476 76.2105 580.272 74.1081 581.987C68.5578 586.408 64.9416 592.091 61.3255 598.226C59.3913 601.474 58.4662 601.294 54.9342 600.572C51.1499 599.85 47.3656 599.129 43.5812 598.678C48.627 593.174 54.2614 587.129 58.2139 580.633C59.4754 578.558 61.1573 572.965 57.2889 572.513C55.6911 572.333 52.4113 575.852 51.234 576.844C45.6015 581.006 40.7513 586.271 36.9377 592.362C35.7603 594.347 35.3398 596.602 33.0692 596.783C30.0418 596.963 24.4074 593.896 21.5481 592.994C27.0984 585.505 32.6488 577.836 39.1242 571.25C45.095 565.115 51.0658 560.695 58.0458 556.003C65.4427 550.859 72.5734 545.287 79.4061 539.312C85.9656 533.628 92.8615 528.305 98.9164 521.99C111.063 509.211 121.736 494.914 130.705 479.405C132.806 475.826 134.715 472.121 136.423 468.308C138.021 464.699 138.778 460.369 140.88 457.121C141.637 455.948 142.646 455.136 143.319 453.963C143.908 452.88 143.74 451.527 144.665 450.535C146.851 448.279 150.888 449.632 152.99 451.256C156.27 453.782 158.961 456.94 162.661 459.106C166.352 461.226 170.281 462.832 174.351 463.887C183.853 466.323 193.272 468.398 202.943 469.932C201.934 473.902 204.373 474.533 205.214 478.052C206.139 482.383 204.877 487.796 204.793 492.217V492.217ZM113.381 426.175C111.194 422.746 109.344 419.138 107.158 415.709C105.896 413.634 104.299 411.379 105.392 408.762C107.242 404.432 113.801 403.62 117.333 405.514C125.407 409.845 117.922 422.115 113.381 426.175V426.175ZM92.0205 347.682C91.2637 341.006 93.7025 336.224 99.3369 332.706C103.373 330.18 106.653 333.608 106.065 338.209C105.224 345.156 98.3277 352.915 93.0297 356.524C92.6092 353.637 92.3569 350.66 92.0205 347.682ZM91.1796 328.556C92.8615 327.112 97.3186 328.916 99.2528 329.097C96.5617 331.623 93.9547 334.059 91.2637 336.585C91.0955 334.781 89.5817 329.819 91.1796 328.556V328.556ZM100.094 263.777C113.549 261.882 98.0754 277.4 94.1229 279.836C94.7957 276.498 96.3935 264.318 100.094 263.777ZM135.919 236.62C134.153 244.56 120.109 253.221 119.94 240.229C119.856 235.357 122.463 235.808 126.164 235.357C128.182 235.087 136.928 232.109 135.919 236.62ZM87.3953 248.981C85.7974 253.401 84.536 258.003 83.0223 262.424C82.4146 264.233 81.4704 265.89 80.2471 267.295C79.1538 268.559 77.8924 268.919 77.9765 270.995C79.2457 270.607 80.4219 269.93 81.4244 269.01C81.1721 273.07 79.8266 277.49 79.1538 281.55C78.34 286.415 77.7785 291.325 77.4719 296.256C76.9674 306.993 76.9673 317.729 77.1355 328.556C77.2196 334.059 77.3037 339.563 77.556 344.976C77.7242 347.682 77.8083 350.479 78.1447 353.186C78.3129 354.269 78.9857 356.614 78.5652 357.607C76.7992 361.667 68.81 350.57 65.3621 352.194C65.8667 349.126 64.6893 349.758 62.8392 348.314C61.9142 347.592 61.3255 346.329 60.3163 345.698C60.0495 345.351 59.738 345.047 59.3913 344.795C58.9708 344.254 58.5503 344.254 58.1299 344.976C54.2614 342.45 53.2523 337.127 51.1499 333.608C50.0566 331.804 49.0475 331.443 48.8793 328.916C48.7111 326.661 49.0475 324.405 48.9634 322.24C48.9565 319.652 48.6457 317.076 48.0383 314.571C47.2815 311.774 46.1882 311.955 44.1699 310.511C44.7481 310.223 45.2 309.705 45.4314 309.068C44.7586 309.158 42.8244 310.06 42.3198 309.429C41.3106 308.166 43.6653 308.075 44.254 307.534C41.7311 306.271 42.2357 305.279 43.1608 303.113C43.413 302.482 43.6653 301.489 43.9176 301.038C44.4222 299.865 44.6745 300.587 44.8427 299.143C45.0109 297.79 43.8335 295.084 43.4971 293.55C42.8372 291.21 42.7217 288.731 43.1608 286.332C43.5812 284.257 44.6745 282.362 44.7586 280.197C44.7586 279.566 43.9176 279.385 43.9176 278.844C43.9176 278.032 44.6745 277.581 44.8427 276.859C45.3473 274.874 45.095 272.709 45.9359 270.814C46.8996 268.902 48.0256 267.09 49.2998 265.401C50.0566 264.408 51.9067 263.236 52.0749 261.792C52.2431 260.89 50.8976 260.98 50.9817 260.348C51.0658 259.446 51.8226 259.085 51.9908 258.454C52.4954 256.559 52.6636 254.755 54.0932 253.311C55.8593 251.507 56.6161 252.229 56.7002 249.251C56.7002 247.808 55.607 247.537 56.1956 245.913C56.532 245.011 57.4571 244.47 58.0458 243.838C59.7224 242.061 61.1399 240.023 62.2506 237.793C63.3438 235.718 65.1939 234.455 66.2872 232.651C67.8009 230.305 65.5303 229.132 68.5578 228.41C68.1373 226.967 67.6327 225.794 68.81 224.531C69.4828 223.719 71.3329 224.26 72.0057 223.358C72.7626 222.275 71.6693 219.839 72.7626 219.208C73.6876 218.666 74.949 220.38 76.3787 219.478C77.4719 218.847 79.0698 215.328 78.7334 214.065C81.5085 215.689 80.8358 214.606 82.0972 212.441C82.4336 211.99 83.2745 211.9 83.5268 211.358C84.0314 210.366 83.9473 209.374 84.6201 208.652C85.8815 207.389 87.8157 207.659 89.1613 206.757C90.2545 205.945 90.1704 205.133 91.0955 204.411C91.8523 203.78 93.1138 203.69 93.8706 203.058C95.3003 201.795 95.3003 200.442 97.1504 199.359C99.2554 198.21 101.255 196.851 103.121 195.299C104.383 194.216 105.56 192.232 107.074 191.51C109.092 190.517 110.69 190.427 112.708 188.984C114.138 187.901 115.483 186.187 116.913 185.375C118.006 184.743 118.763 184.833 120.109 184.472C122.547 183.751 123.136 181.315 125.154 180.232C126.5 179.51 128.518 180.142 130.032 179.781C134.657 178.698 139.282 176.262 143.908 174.909C149.626 173.285 155.345 171.842 161.063 170.398C155.765 178.067 149.038 185.014 142.226 191.059C139.955 193.043 127.761 202.156 134.321 206.035C137.012 207.569 142.73 202.517 144.917 201.344C149.225 198.905 153.662 196.736 158.204 194.848C165.52 191.6 175.023 185.826 183.181 186.277C178.219 192.773 172.08 198.006 166.445 203.78C161.232 209.103 153.411 213.975 155.849 222.636C148.533 220.651 141.974 218.305 134.405 218.847C131.041 219.117 127.593 218.666 124.229 219.117C120.529 219.659 117.081 221.012 113.549 222.185C110.774 223.087 107.662 223.177 105.055 224.711C103.704 225.507 102.411 226.412 101.187 227.418C100.008 228.443 98.9859 229.661 98.1595 231.027C93.9547 236.62 89.9181 241.943 87.3953 248.981V248.981ZM64.6052 357.426C64.3529 356.434 64.1848 355.532 63.9325 354.359C66.2031 355.893 66.2031 355.893 64.6052 357.426ZM47.0292 325.849C46.7731 326.074 46.4599 326.212 46.13 326.244C45.8001 326.276 45.4688 326.202 45.1791 326.029C44.7586 325.578 45.8518 323.774 46.1041 323.413C46.5246 323.774 47.6179 325.037 47.0292 325.849ZM42.0675 314.301C42.4039 313.128 42.6562 311.865 42.9926 310.692C43.329 311.774 45.095 313.038 45.095 314.12C45.1791 314.842 42.4039 314.481 42.0675 314.301ZM43.0767 316.015C45.7677 317.909 46.02 320.075 46.1041 323.323C42.9085 322.24 43.329 318.902 43.0767 316.015ZM89.4136 187.811C89.1613 188.623 87.9839 191.059 87.143 189.344C86.8907 188.803 88.8249 188.081 89.4136 187.811ZM88.6567 185.194C89.3295 184.563 90.675 185.375 91.3478 184.833C91.8523 184.472 91.6841 184.112 91.9364 183.931C92.0205 183.931 92.6933 182.307 92.9456 182.037C93.4502 181.405 94.5434 181.044 95.2162 180.503C96.9822 178.969 97.9073 176.894 99.0846 174.819C100.43 172.383 100.851 172.022 102.953 170.939C104.372 170.162 105.653 169.124 106.737 167.872C108.083 166.338 107.999 165.255 109.092 163.541C109.681 162.729 110.438 162.639 111.11 161.917C111.867 161.105 112.288 160.023 112.96 159.211C113.297 158.85 114.222 158.85 114.474 158.579C114.726 158.218 114.895 156.684 115.147 156.414L116.408 158.308C118.09 155.151 119.352 152.534 122.127 150.369C125.07 148.113 127.677 144.865 130.705 142.881C131.377 142.429 132.807 142.249 133.312 141.617C134.237 140.535 133.396 139.542 134.069 138.55C134.825 137.467 136.255 138.37 137.18 137.918C138.357 137.377 138.694 135.663 140.208 135.843C135.246 142.159 135.246 152.083 134.994 160.023C134.909 163.451 136.844 165.165 133.9 167.691C131.377 169.857 127.845 169.225 124.818 170.578C121.118 172.383 117.081 173.285 113.297 174.819C109.344 176.443 106.149 179.149 102.364 181.044C99.0005 182.668 96.7299 185.014 93.7025 186.999C92.5251 187.72 90.7591 188.803 89.4136 187.901C88.5726 187.179 87.5634 186.277 88.6567 185.194V185.194ZM145.169 131.964C145.421 131.062 149.626 128.716 150.72 127.904C152.317 126.731 154.588 123.934 156.354 125.017C156.943 122.4 159.381 119.513 161.484 118.972C164.572 117.919 167.493 116.367 170.146 114.371C170.818 113.829 171.071 113.017 171.828 112.476C173.173 111.574 174.603 112.025 175.864 110.852C176.032 110.672 177.883 107.424 177.967 107.424L178.219 108.506C179.524 107.89 180.719 107.035 181.751 105.98C181.919 105.709 180.658 105.078 181.078 104.627C181.583 104.085 182.676 104.717 183.181 104.176C181.667 112.386 182.76 123.032 190.581 127.182C181.33 128.265 172.248 125.287 162.913 127.092C158.37 127.95 153.957 129.468 149.794 131.603C147.272 132.956 144.076 137.828 141.637 135.482C142.478 134.039 143.992 133.137 145.169 131.964V131.964ZM190.076 108.236C191.699 106.046 193.897 104.428 196.386 103.592C198.874 102.756 201.539 102.739 204.036 103.544C210.259 105.439 207.653 110.13 206.643 115.273C204.877 112.476 201.009 109.679 197.729 109.589C193.02 109.499 194.786 113.649 197.645 115.183C200.168 116.536 204.541 116.897 206.391 119.423C208.157 121.859 207.484 125.739 207.737 128.626C206.391 128.445 204.961 128.175 203.616 127.994C204.793 121.408 199.663 121.047 194.954 119.152C190.161 117.168 186.124 113.468 190.076 108.236V108.236ZM205.55 91.9056V98.0407L199.748 94.522C201.682 93.7101 203.616 92.8078 205.55 91.9056V91.9056ZM221.024 141.076C227.415 142.971 233.806 144.956 240.03 147.482C242.3 148.384 244.739 148.745 246.925 149.828C249.028 150.82 249.364 150.73 248.607 152.715C246.505 158.218 241.543 157.316 237.254 156.414C230.443 155.06 223.799 153.256 217.155 151.542C210.596 149.828 203.952 148.745 197.477 146.67C190.955 144.417 184.331 142.52 177.63 140.986C175.612 140.535 159.97 139.001 160.054 137.287C169.978 135.934 180.153 137.287 190.076 137.377C200.336 137.558 211.016 138.099 221.024 141.076V141.076ZM212.278 119.694C212.362 115.904 212.446 112.115 212.866 108.326C215.81 112.205 218.501 113.378 222.201 109.769C225.733 106.251 226.574 104.446 231.031 107.694C234.9 110.581 238.6 110.401 242.805 107.875C245.328 106.341 249.364 100.116 252.055 101.379C253.317 102.01 254.242 104.446 255.503 105.349C257.349 106.501 259.371 107.295 261.474 107.694C265.931 108.777 268.538 105.709 271.313 102.462C275.35 97.77 275.182 100.477 278.966 103.725C283.087 107.424 286.619 105.619 290.403 102.462C292.674 109.679 293.515 117.528 294.187 125.107C294.44 127.633 295.196 131.242 293.094 133.046C291.58 134.31 288.385 134.4 286.619 135.031C280.079 137.531 273.948 141.124 268.454 145.677C266.352 147.482 264.501 149.647 261.642 149.196C258.867 148.835 256.26 146.309 253.989 144.685C251.551 142.881 249.196 140.896 246.337 139.903C244.655 139.362 242.048 139.542 240.618 138.46C237.927 136.475 241.123 131.332 240.45 127.904C239.945 125.287 238.516 119.784 235.152 121.318C230.106 123.573 233.05 132.595 235.825 135.392C229.917 134.319 224.096 132.75 218.417 130.701C214.128 129.438 212.194 124.385 212.278 119.694V119.694ZM307.138 138.189C318.743 134.67 329.592 132.325 341.702 131.693C347.084 131.422 352.214 131.603 357.512 131.603C360.539 131.603 362.894 128.987 360.455 126.009C357.091 121.859 346.831 123.393 342.29 123.212C330.445 122.532 318.59 124.34 307.39 128.535C308.652 126.099 311.511 125.829 313.529 124.566C315.914 122.946 317.744 120.54 318.743 117.709C321.519 110.401 318.743 103.544 315.884 96.8678C321.519 98.4918 327.321 102.01 333.04 102.913C334.066 102.953 335.084 103.135 336.067 103.454C336.74 103.725 336.908 104.717 337.749 104.897C338.17 104.988 339.095 104.085 339.515 104.176C341.281 104.717 339.851 104.807 340.945 105.619C341.786 106.251 341.702 106.973 343.299 106.702C343.972 106.612 344.729 105.439 345.15 105.349C345.654 105.349 345.486 104.717 346.243 104.897C347.588 105.258 347.42 107.063 347.841 107.965C348.345 108.957 347.672 110.221 349.102 110.672C350.195 111.033 350.448 109.86 351.373 109.95C352.197 110.24 352.946 110.735 353.559 111.393C355.273 113.223 357.228 114.774 359.362 115.995C359.194 115.814 360.371 115.273 360.034 115.092C360.378 115.15 360.715 115.241 361.044 115.363C362.221 115.634 362.894 117.619 363.482 118.34C364.708 119.808 366.233 120.951 367.94 121.679C370.631 122.671 370.546 121.498 371.556 124.927C373.49 121.679 374.247 127.092 376.601 127.723C377.863 127.994 377.695 127.453 378.872 128.175C379.629 128.626 380.133 130.159 380.722 130.791C380.974 129.798 381.227 128.716 381.479 127.723C383.245 131.242 386.945 136.836 391.066 135.843C391.066 136.836 390.73 137.918 391.402 138.73C391.907 139.272 392.664 138.64 393.084 139.001C393.421 139.272 394.177 140.445 394.43 140.625C394.934 140.986 395.859 141.257 396.28 141.617C396.7 141.978 396.869 143.512 397.289 144.053C398.046 145.136 399.476 145.317 400.148 146.58C400.316 145.317 400.485 144.053 400.569 142.79C401.83 143.873 401.998 144.685 402.251 146.219C402.671 148.474 402.082 147.933 403.512 148.835C404.942 149.737 405.615 149.647 406.96 151.271C408.222 152.805 408.221 153.797 410.072 152.173C410.408 153.346 410.492 154.97 411.417 155.872C412.09 156.594 414.949 156.594 415.201 158.218C409.903 153.436 413.351 160.744 415.201 158.218C415.622 160.925 417.388 161.737 419.49 163.631C421.425 165.436 421.761 165.255 422.434 168.233C422.807 168.409 423.148 168.653 423.443 168.954C421.593 169.225 424.452 171.481 424.957 171.932C425.293 172.202 425.798 171.481 426.386 172.022C427.087 172.8 427.682 173.681 428.152 174.638C429.445 176.594 430.849 178.463 432.357 180.232C434.039 182.037 434.88 184.382 436.562 186.457C438.412 188.803 439.421 191.51 440.935 194.126C442.364 196.562 444.299 198.547 445.981 200.803C448.672 204.321 449.597 212.17 454.558 212.441C454.306 212.802 454.642 215.238 454.727 215.599C454.979 217.764 454.811 219.929 455.988 221.914C456.24 219.659 457.418 220.471 458.343 221.734C459.94 223.719 458.511 223.268 458.595 225.252C458.679 227.688 458.931 225.794 459.856 227.959C460.495 229.429 460.975 230.973 461.286 232.56C458.427 232.831 457.165 230.305 456.156 227.959C455.736 226.967 455.567 225.343 454.811 224.531C453.97 223.719 452.876 223.628 452.035 222.726C450.438 220.922 449.681 218.125 447.831 216.411C445.644 214.426 445.224 213.524 443.374 211.178C441.439 208.562 438.664 206.757 436.562 204.231C434.459 201.705 434.628 203.058 432.021 202.156C429.245 201.163 424.788 191.871 421.256 195.389C421.425 193.043 418.145 190.788 416.463 189.976C415.706 189.615 414.949 189.976 414.192 189.344C413.435 188.713 413.351 187.63 412.594 186.908C412.126 187.03 411.646 187.09 411.165 187.089C410.66 186.818 410.66 185.826 410.24 185.555C408.972 184.627 407.652 183.784 406.287 183.029C403.176 181.225 400.401 178.969 397.373 176.804C394.766 174.909 391.655 171.571 388.627 170.578C386.02 169.676 384.338 170.127 382.236 168.413C381.058 167.511 381.395 167.15 379.545 166.609C377.779 166.067 376.77 166.338 375.845 164.263C374.163 160.744 375.256 153.797 374.919 149.737C374.667 145.451 374.076 141.195 373.153 137.016C371.976 132.144 370.294 129.618 365.417 130.791C355.746 133.046 346.243 135.212 336.572 137.197C317.23 141.166 298.308 147.662 279.386 153.436C277.957 153.888 269.884 155.872 271.566 151.361C272.322 149.286 277.368 148.564 279.134 147.933C288.217 144.685 297.635 141.076 307.138 138.189V138.189ZM303.858 129.167C302.429 129.708 300.999 130.34 299.654 130.881V126.641C301.083 127.453 302.513 128.265 303.858 129.167V129.167ZM298.056 106.882C299.317 107.965 301.756 105.349 302.849 104.807C304.723 103.789 306.805 103.293 308.904 103.364C309.784 103.475 310.635 103.775 311.404 104.248C312.173 104.721 312.845 105.356 313.379 106.114C313.913 106.873 314.299 107.74 314.512 108.662C314.726 109.585 314.764 110.545 314.623 111.484C313.445 118.16 304.699 121.227 299.822 123.844C299.654 121.498 298.981 118.701 300.495 116.626C301.84 114.822 304.447 115.002 305.624 113.108C308.736 108.416 300.326 107.965 298.476 111.754C297.719 109.318 296.962 106.973 296.29 104.537C297.888 104.266 297.131 106.07 298.056 106.882V106.882ZM306.718 93.8905C304.952 95.0634 303.186 96.3265 301.504 97.4993C300.579 93.3492 303.522 92.8079 306.718 93.8905ZM466.248 240.139C463.977 241.312 463.388 238.515 461.707 238.425C463.641 237.162 463.641 237.162 466.248 240.139ZM475.582 301.399C475.835 305.459 475.666 309.519 476.171 313.489C476.592 316.556 477.685 319.353 477.853 322.511C478.169 329.332 475.962 336.011 471.714 341.096C467.445 345.927 462.171 349.606 456.324 351.833C453.886 352.735 451.279 354.72 448.84 355.441C446.149 356.253 443.626 354.539 441.439 357.607C440.01 344.164 441.019 329.999 440.935 316.466C440.851 302.843 440.935 289.309 438.832 275.866C436.898 263.867 433.198 250.424 426.218 240.59C423.316 236.738 419.983 233.284 416.295 230.305C414.443 228.641 412.475 227.133 410.408 225.794C407.128 223.899 404.353 224.17 400.821 223.628C395.775 222.816 391.066 222.185 385.936 223.719C381.227 225.162 376.013 226.786 371.724 229.222C367.519 231.658 362.557 232.741 358.184 234.906C355.241 236.44 349.018 241.402 345.738 240.5C342.543 239.598 337.833 233.823 335.731 231.207C333.205 227.73 330.848 224.116 328.667 220.38C327.826 219.117 326.228 217.133 325.976 215.509C325.639 212.712 326.648 213.614 329.171 213.975C335.513 214.7 341.769 216.121 347.841 218.215C350.952 219.298 356.923 223.628 359.95 221.012C364.66 217.042 357.512 210.095 354.905 207.84C350.448 203.87 345.318 200.983 340.524 197.464C335.478 193.765 328.835 189.796 325.639 184.021C335.058 186.999 344.561 190.427 353.727 194.307C357.932 196.014 362.033 198.003 366.005 200.261C368.192 201.614 372.733 205.133 375.34 203.419C381.143 199.72 367.855 188.893 365.921 186.728C362.894 183.3 360.034 179.871 356.755 176.804C354.568 174.729 351.036 173.195 350.027 170.127C353.727 171.571 356.671 174.368 360.119 176.262C361.83 177.215 363.677 177.855 365.585 178.157C367.687 178.518 367.94 178.879 369.621 179.781C370.935 180.628 372.313 181.352 373.742 181.946C374.751 182.307 376.601 182.307 377.526 182.939C378.031 183.66 378.452 184.382 378.956 185.014C379.529 185.184 380.091 185.395 380.638 185.645C381.479 186.457 381.899 187.45 382.74 188.262C388.459 194.036 396.112 198.186 402.503 203.058C408.558 207.659 414.949 211.809 420.752 216.772C427.395 222.546 434.375 228.681 440.094 235.628C443.215 239.626 446.08 243.846 448.672 248.259C450.606 251.417 453.465 253.943 455.147 257.191C458.847 264.228 461.875 271.807 465.827 278.754C469.696 285.791 474.91 292.828 475.582 301.399V301.399ZM421.256 342.179C422.35 337.307 428.573 331.623 432.525 329.458C430.507 334.781 425.209 338.39 421.256 342.179ZM431.432 359.141C428.068 366.719 413.183 367.531 415.201 356.344C416.211 350.84 420.415 347.502 424.032 343.983C425.713 342.359 429.75 336.405 432.357 337.397C432.273 341.638 432.021 345.878 432.021 350.209C432.021 353.005 432.693 356.524 431.432 359.141V359.141ZM427.143 272.258C428.489 275.596 429.918 278.302 427.311 281.28C426.134 282.633 422.434 285.52 420.752 284.889C415.286 282.813 425.713 273.701 427.143 272.258ZM394.262 242.755C395.607 242.665 396.869 242.846 398.13 242.846C399.391 242.755 399.56 242.485 400.737 242.665C400.897 242.86 401.038 243.071 401.157 243.297C401.326 244.65 401.998 244.74 403.092 243.748C404.538 244 405.932 244.519 407.212 245.282C403.176 248.439 398.214 252.048 393.252 253.131C385.347 254.755 387.534 243.206 394.262 242.755ZM273.752 313.308C272.911 315.022 270.556 310.692 270.052 309.88C271.145 309.88 274.593 311.504 273.752 313.308ZM336.908 267.025C343.328 263.197 349.988 259.851 356.839 257.01C358.016 262.965 352.382 270.634 348.934 274.694C346.159 278.032 342.795 281.37 338.926 283.265C334.806 285.34 330.349 284.437 330.517 278.663C330.582 276.135 331.037 273.635 331.862 271.265C332.871 268.829 334.806 268.378 336.908 267.025V267.025ZM254.41 158.669C255.335 158.579 265.174 157.226 265.174 158.579C265.006 162.459 255.419 159.391 254.41 158.669ZM184.61 235.087C189.824 228.23 198.234 220.741 198.402 211.088C198.57 196.923 183.937 203.96 176.537 204.592C180.405 200.442 200.084 183.209 188.479 177.074C185.115 175.27 180.405 177.074 177.042 177.977C171.071 179.601 165.605 182.488 159.718 184.382C163.923 179.601 171.071 174.187 170.818 166.97C170.566 158.218 163.839 160.293 158.036 161.647C155.765 162.098 145.842 166.428 143.992 163.541C143.319 162.459 144.412 161.105 144.665 160.203C144.947 158.903 145.06 157.567 145.001 156.233C145.001 152.805 147.188 148.384 145.421 145.226C145.002 145.932 144.663 146.689 144.412 147.482C143.824 145.587 144.244 143.693 143.655 141.798C158.12 145.768 172.921 147.933 187.469 151.361C194.87 153.076 201.766 156.053 209.25 157.406C216.819 158.759 224.219 160.835 231.788 162.098C238.684 163.271 245.328 165.165 252.139 166.699C258.783 168.142 265.595 164.985 272.154 163.361C286.703 159.752 301.251 156.053 315.8 152.534C332.619 148.474 350.111 145.046 366.174 138.279C366.51 147.301 367.183 156.233 368.192 165.165C361.044 161.556 350.532 156.865 343.383 163.271C342.007 164.602 341.025 166.338 340.562 168.263C340.098 170.188 340.173 172.217 340.777 174.097C342.038 178.247 345.822 180.142 348.345 183.209C340.692 181.134 321.098 166.338 317.566 181.315C315.127 191.871 327.153 198.637 333.04 204.592C327.153 203.329 319.332 198.367 315.968 206.396C313.025 213.343 316.557 220.922 320.257 226.696C322.275 229.854 324.462 232.741 326.564 235.718C327.658 237.342 328.751 238.966 329.928 240.5C331.105 242.034 333.292 243.658 334.133 245.372C335.815 248.71 332.451 248.981 329.844 250.153C326.564 251.687 323.789 254.213 320.846 256.288C314.034 260.98 308.063 265.311 300.074 266.754C291.833 268.288 283.844 269.912 275.686 271.987C267.529 274.152 260.885 276.137 252.56 273.43C248.775 272.167 245.664 271.085 241.627 271.265C237.423 271.536 234.9 271.265 231.452 268.468C216.314 256.469 200.084 246.545 184.61 235.087V235.087ZM157.615 222.997C163.418 219.929 169.221 216.772 175.191 214.065C180.153 211.809 187.638 209.283 193.02 210.276C191.506 214.516 188.731 217.945 185.703 221.012C183.097 223.719 179.733 227.869 176.537 229.763C173.594 231.478 170.23 228.771 167.371 227.598C164.343 226.335 160.054 225.704 157.615 222.997ZM159.129 238.695C161.988 237.432 168.212 241.763 170.818 242.846C175.948 245.011 181.162 247.357 185.703 250.785C180.153 257.642 173.846 263.957 166.445 268.378C161.568 271.265 153.242 274.603 148.617 269.371C142.815 262.784 149.794 249.251 153.915 243.567C154.083 244.56 154.167 245.552 154.336 246.454C155.597 244.199 156.606 239.778 159.129 238.695ZM264.838 297.429C261.222 298.241 260.044 297.52 257.69 294.542C256.092 292.557 254.494 290.482 252.728 288.678C250.878 286.873 246.337 282.453 252.139 284.979C257.437 287.325 261.979 288.497 267.781 287.595C274.425 286.513 280.648 283.535 287.207 282.001C283.591 285.34 280.059 288.768 276.443 292.196C272.575 295.715 269.715 296.347 264.838 297.429V297.429ZM265.679 324.676C257.774 330.992 241.964 330.36 247.262 316.376C248.089 314.235 249.193 312.231 250.542 310.421C251.019 309.55 251.647 308.784 252.392 308.166C254.158 306.993 253.653 306.903 255.335 308.797C256.765 310.421 268.033 323.684 265.679 324.676ZM263.324 300.316C264.081 300.046 267.108 298.151 267.781 299.234C268.538 300.316 262.567 303.925 263.324 300.316ZM320.678 397.304C318.912 401.815 304.699 408.401 307.39 399.289C308.568 395.229 309.661 392.161 314.034 391.891C316.641 391.71 322.275 393.334 320.678 397.304V397.304ZM346.159 335.683C348.513 332.074 356.166 327.112 359.446 332.525C361.044 335.142 357.175 336.495 354.821 335.773C353.559 335.412 352.55 334.6 351.204 334.51C349.522 334.6 347.756 336.044 346.159 335.683V335.683ZM352.298 339.292C350.7 341.006 341.113 349.667 339.599 348.314C342.711 343.532 346.327 338.209 352.298 339.292ZM336.656 426.716C333.292 426.897 334.974 421.574 335.31 419.408C336.151 420.942 340.356 426.536 336.656 426.716ZM345.15 417.153C344.056 415.078 341.197 412.01 341.87 409.394C342.374 407.409 346.916 404.702 348.766 405.785C351.289 407.319 347.588 417.423 345.15 417.153ZM423.947 395.59C422.518 400.823 421.088 399.469 416.631 400.462C412.174 401.454 409.062 405.514 405.11 407.77C406.455 404.702 407.296 400.913 409.651 398.387C410.156 397.845 413.435 396.673 411.585 395.319C409.988 394.146 407.633 397.936 406.96 399.018C403.512 404.161 401.157 410.386 399.223 416.251C398.211 419.109 397.479 422.072 397.037 425.092C396.616 427.799 397.037 430.596 396.616 433.302C395.943 437.543 390.561 437.543 387.366 438.625C384.458 439.729 381.478 440.603 378.451 441.242C375.845 441.693 373.069 440.881 370.546 441.422C367.771 442.054 366.51 443.768 363.398 443.407C360.875 443.046 358.437 441.783 355.83 441.693C353.391 441.603 350.952 442.505 348.597 441.783C346.159 441.061 346.243 440.791 346.831 438.174C347.168 438.896 347.504 439.528 347.841 440.249C348.85 439.437 349.522 436.911 350.111 435.738C351.036 433.934 351.793 433.302 351.457 431.047C350.952 427.709 348.177 425.363 347.504 422.205C346.831 418.867 349.102 416.16 350.448 413.454C352.298 409.664 352.298 406.867 350.7 402.988C351.877 403.349 353.055 403.62 354.232 403.98C352.634 400.281 347.252 401.725 344.477 402.898C343.131 403.439 340.945 405.604 339.515 405.604C337.497 405.514 336.404 402.717 335.563 401.093C333.04 396.582 330.18 392.071 327.237 387.831C326.396 386.658 325.387 385.936 325.639 384.583C325.892 383.5 328.246 381.876 329.003 381.154C331.862 378.538 335.478 377.185 338.17 374.388C342.206 370.238 346.831 367.351 351.036 363.291C355.325 359.05 359.782 355.261 364.239 351.291C368.78 347.231 372.733 342.54 377.19 338.48C378.367 340.735 380.638 348.855 383.245 349.487C386.272 350.209 386.188 346.419 386.02 344.074C385.768 340.826 384.086 337.578 383.918 334.42C383.75 331.082 386.693 329.548 388.963 327.653C392.496 324.676 400.232 317.819 396.028 312.226C392.411 307.354 380.722 316.646 377.526 319.443C374.751 321.789 372.649 323.954 369.621 325.849C367.435 327.202 363.819 332.255 361.212 331.713C358.184 331.172 356.923 327.563 353.223 327.653C349.607 327.744 346.495 330.631 344.224 333.428C339.095 339.833 337.329 348.404 332.703 355.081C330.433 358.419 327.405 361.125 324.882 364.193C322.107 367.621 321.519 371.591 318.827 374.929C311.091 363.832 302.681 353.366 294.524 342.72C290.487 337.397 286.45 331.984 282.498 326.571C280.984 324.586 279.302 322.601 277.957 320.526C276.107 317.639 276.443 315.293 275.686 312.045C275.35 310.602 273.836 308.887 274.257 307.534C274.845 305.639 278.63 304.196 280.059 303.474C285.778 300.407 290.908 296.527 296.206 292.738C306.045 285.701 315.968 279.205 326.396 273.16C326.228 275.776 324.63 278.393 325.723 281.009C326.228 279.566 326.985 272.889 328.835 272.618C328.498 272.709 328.751 281.099 329.087 282.362C329.928 285.971 332.451 288.407 335.983 288.407C342.711 288.317 348.766 280.468 352.55 275.235C355.073 271.716 357.512 267.566 358.437 263.145C359.278 259.176 358.353 256.379 362.221 254.394C369.979 250.235 378.126 246.969 386.525 244.65C386.104 248.529 385.095 253.401 388.375 256.198C391.991 259.266 396.784 256.559 400.232 254.484C403.68 252.409 408.894 246.906 412.931 248.529C416.883 250.153 419.574 255.386 421.845 258.905C423.779 261.972 425.882 264.228 423.611 267.656C421.088 271.536 419.49 275.325 417.388 279.475C416.631 281.099 415.874 282.182 416.379 283.806C417.16 285.322 418.091 286.743 419.154 288.046C422.686 290.933 427.395 285.43 429.918 283.265C430.759 292.377 431.012 301.399 431.348 310.602C431.6 317.278 434.039 323.864 428.909 328.736C423.779 333.608 419.49 338.66 416.379 345.246C414.697 348.765 413.183 352.374 411.417 355.893C410.24 358.238 407.717 361.577 409.231 364.283C410.828 362.659 411.333 360.043 412.763 358.238C413.604 362.118 414.445 366.448 418.229 368.163C422.686 370.057 427.059 366.809 431.011 364.915C429.498 375.38 426.723 385.485 423.947 395.59V395.59ZM419.49 407.589C416.463 414.536 413.688 422.927 408.053 428.069C406.792 429.152 401.578 433.573 399.56 432.851C397.878 432.22 398.803 428.521 399.055 426.987C400.569 419.047 403.176 413.995 409.147 408.943C411.669 406.868 414.865 404.161 418.061 403.62C421.593 403.078 420.668 404.883 419.49 407.589V407.589ZM505.184 573.055C497.279 561.597 486.178 552.575 475.666 544.004C470.873 540.124 465.659 537.147 460.866 533.267C455.505 528.751 449.794 524.737 443.794 521.268C432.189 514.952 419.574 510.532 408.726 503.043C403.428 499.434 397.541 495.916 392.58 491.766C390.433 489.839 388.384 487.792 386.441 485.631C384.591 483.736 380.638 480.939 379.881 478.142C382.993 477.601 384.675 474.443 387.45 474.082C388.375 473.992 394.009 475.616 393.252 472.639C394.614 472.654 395.972 472.472 397.289 472.097C397.962 471.917 398.887 472.188 399.56 471.917C400.653 471.466 401.41 470.293 402.503 469.842C403.26 469.481 406.203 469.842 406.708 469.481C407.885 468.398 406.624 468.489 405.867 467.045C408.221 466.955 409.819 468.218 412.258 466.865C412.969 466.282 413.643 465.649 414.276 464.97C415.538 464.068 415.958 465.421 416.799 463.617C417.556 466.143 417.556 465.421 419.49 464.699C421.237 463.934 423.079 463.448 424.957 463.256C430.171 462.805 435.384 463.526 440.514 463.075C442.364 462.895 444.046 462.444 445.896 462.714C447.578 462.985 447.074 464.158 448.419 462.534C448.756 462.173 447.747 461.09 448.167 460.549C448.419 460.278 449.092 460.459 449.344 460.369C451.783 459.196 451.783 460.82 452.204 462.895C453.643 462.616 455.033 462.098 456.324 461.361C455.736 460.73 454.642 460.098 455.231 459.015C457.249 459.827 458.595 459.466 457.586 461.902C459.604 462.624 460.025 461.722 461.875 461.451C462.968 461.361 464.482 462.083 465.407 461.09C466.416 460.098 464.818 458.925 466.668 458.113C467.026 458.317 467.319 458.631 467.509 459.015C468.518 459.376 468.35 459.737 467.005 460.278C470.621 462.263 469.78 460.008 471.293 457.662C471.63 457.121 473.228 455.406 473.9 456.218C474.994 457.482 472.807 457.842 473.228 459.106C474.069 461.271 476.928 458.474 477.769 457.391C478.442 456.579 478.694 455.046 479.451 454.414C480.46 453.602 481.89 454.865 483.151 454.685C488.785 453.602 494.168 445.392 489.879 439.979C488.701 438.535 487.776 438.806 486.431 437.904C485.085 437.001 484.328 435.377 483.235 434.114C480.777 431.149 477.691 428.859 474.237 427.438C466.069 424.158 457.657 421.623 449.092 419.859C445.224 419.047 441.019 417.784 436.982 417.784C434.628 417.784 431.096 419.769 428.909 418.777C424.62 416.972 430.927 407.589 431.937 404.522C434.979 395.521 437.287 386.253 438.832 376.824C439.169 375.019 439.001 372.583 439.589 370.869C440.262 368.884 440.43 369.155 441.944 368.975C444.635 368.704 447.662 370.238 450.522 369.696C453.633 369.065 457.081 369.426 460.277 368.343C461.74 368.017 463.067 367.195 464.061 365.997C464.398 365.546 464.061 365.185 464.229 364.915C464.645 364.456 465.038 363.974 465.407 363.471C465.379 362.834 465.436 362.196 465.575 361.577C466.668 362.569 466.164 364.644 468.014 364.644C468.35 362.479 468.35 362.028 469.696 360.765C469.994 360.517 470.276 360.245 470.537 359.953C470.603 359.564 470.747 359.195 470.957 358.87C471.573 358.501 472.27 358.315 472.975 358.329C474.405 356.705 473.816 355.893 473.816 353.727C474.994 354.359 476.171 354.99 477.348 355.712C477.601 349.306 481.217 345.878 483.656 340.645C484.665 338.48 485.758 336.766 485.926 334.059C486.094 332.525 485.674 331.172 486.263 329.728C486.767 328.375 488.029 327.744 488.533 326.3C489.542 323.503 488.785 319.894 488.87 317.007C488.954 312.947 489.29 308.978 489.458 304.918C489.599 296.913 489.064 288.911 487.86 281.009C487.356 277.22 486.431 273.611 485.758 269.912C485.169 266.844 483.824 263.957 483.319 261.16C483.151 259.988 483.403 258.905 483.067 257.642C482.646 255.928 481.89 254.213 481.385 252.589C480.124 248.62 478.862 244.74 477.432 240.861C474.657 233.372 471.462 226.064 468.35 218.757C465.407 211.719 462.968 204.411 459.1 197.735C455.315 191.239 451.279 184.833 447.074 178.608C442.785 172.112 437.235 166.518 433.03 160.023C425.125 147.753 414.108 137.558 402.671 129.257C378.956 112.025 353.307 94.7927 324.798 88.8381C320.505 87.8921 316.144 87.3487 311.763 87.2141C309.072 87.1239 304.531 88.5675 302.008 87.575C299.149 86.4924 299.401 82.9738 298.644 80.2671C297.719 76.7485 295.617 74.493 293.262 71.9668C290.739 69.3504 288.469 66.2828 285.357 64.5686C282.162 62.7642 278.461 62.1327 275.013 61.5913C271.902 61.1402 267.193 61.5914 264.333 60.0576C261.726 58.7043 262.988 57.351 265.426 58.5238C265.493 57.5039 265.845 56.5293 266.436 55.727C266.772 55.2759 268.37 54.6443 268.454 54.1932C268.538 53.7421 267.108 52.2986 266.94 51.667C266.586 50.1646 266.705 48.5789 267.277 47.156C269.715 49.5017 270.472 50.4942 273.163 48.3288C273.993 47.5265 274.966 46.9127 276.023 46.5244C276.359 46.4342 277.2 46.7951 277.536 46.6146C278.714 45.8027 277.62 45.9831 278.209 44.9907C278.041 45.2613 279.05 42.5547 279.05 43.096C279.134 41.6525 279.555 42.1036 278.798 40.3894C277.2 36.961 273.163 36.7805 275.266 32.901C276.107 31.3673 276.779 31.5477 277.032 29.2922C277.116 28.1193 277.032 26.6758 277.032 25.5029C277.032 22.9767 277.452 21.2625 275.266 19.9994C273.163 18.7363 271.229 20.0896 270.388 17.1123C269.463 13.9546 270.388 9.80444 267.193 7.63913C264.838 6.01515 261.474 7.36847 258.867 6.6467C256.26 5.83471 253.821 3.03786 251.214 5.20316C249.364 6.73692 248.355 10.6164 244.823 8.54134C243.225 7.63913 242.384 4.48139 241.375 2.67697C239.777 -0.119883 238.516 -1.11232 235.993 1.59432C234.479 3.30852 231.284 7.36847 231.031 9.71422C230.779 12.3306 232.881 13.4133 230.274 14.8568C227.667 16.3906 226.154 15.2177 224.051 18.3754C221.949 21.443 223.547 23.1572 221.108 26.0442C218.08 29.7433 216.399 31.2771 216.483 36.2392C216.483 39.5774 213.707 42.5547 215.389 45.7124C217.239 49.3213 222.538 50.7648 225.733 52.2986C224.64 54.4639 223.21 55.8172 224.472 57.9825C225.649 59.9674 228.845 60.4185 230.779 60.0576C232.124 59.7869 232.209 60.0576 233.218 59.0652C233.89 58.4336 232.965 57.6216 234.395 57.1705C235.909 56.8096 238.348 59.9674 239.273 60.7794C237.086 63.8469 231.031 64.3882 227.836 65.922C225.901 66.8242 224.135 68.2677 222.117 69.0797C220.351 69.8917 218.165 69.7112 216.483 70.8841C213.707 72.9592 212.53 78.0116 210.764 80.9889C208.83 84.3271 206.896 85.951 203.195 86.6728C198.486 87.575 194.786 87.9359 190.413 90.1012C185.115 92.8078 179.817 95.6047 174.603 98.4918C166.3 102.991 158.242 107.991 150.467 113.468C142.31 119.333 134.321 125.468 126.416 131.603C118.595 137.648 112.035 145.136 105.224 152.444C99.7574 158.399 94.8798 164.804 89.4136 170.669C82.9382 177.706 78.2288 186.457 72.258 193.946C68.9782 198.006 65.8667 201.975 63.7643 206.757C62.0824 210.637 59.2231 214.426 57.2889 218.486C54.8501 223.719 52.4954 228.771 49.7203 233.823C48.5429 235.899 47.1974 237.703 46.02 239.598C44.5063 242.124 44.5904 244.56 44.1699 247.447L42.9085 245.282C42.1516 247.086 41.1425 248.89 40.4697 250.785C40.0492 251.958 40.1333 253.672 39.6287 254.755C39.1242 256.108 38.4514 255.928 37.7786 257.01C37.0218 258.183 36.8536 259.717 36.0126 260.98C32.7329 266.393 31.3873 273.34 29.7054 279.566C27.4348 287.866 27.7712 297.429 27.9394 306C28.0087 315.056 28.6267 324.097 29.7895 333.067C30.919 341.171 33.4579 348.975 37.274 356.073C40.6379 362.298 45.2632 365.907 51.1499 369.065C53.841 370.508 56.3638 370.057 59.2231 370.328C62.3346 370.599 64.5211 371.501 67.8009 370.689C69.3987 370.328 70.1556 369.065 71.417 368.614C72.1739 368.343 72.5944 368.794 73.3512 368.704C74.4445 368.524 76.631 367.982 77.8083 368.163C81.4244 368.614 80.8358 374.478 81.1722 377.455C81.7608 382.057 82.0972 386.748 82.8541 391.349C84.3678 401.003 87.7316 410.025 89.7499 419.498C80.9255 420.489 72.268 422.766 64.0166 426.265C55.3547 430.054 46.6087 431.317 37.5263 433.122C29.0326 434.836 20.7912 438.084 13.9795 444.039C10.7838 446.835 7.50406 449.993 9.77465 454.594C11.2884 457.482 13.9795 458.203 16.3341 459.918C16.8387 459.286 15.4091 457.933 15.1568 457.572C17.091 458.023 17.091 459.015 18.5206 459.827C19.7821 460.549 20.7912 460.549 22.1368 461.09C25.5006 462.353 27.0984 465.601 30.4623 466.504C31.4714 466.774 32.901 467.496 33.9102 467.677C35.1716 467.947 36.1808 467.316 37.4422 467.586C38.1506 468.054 38.9143 468.419 39.7128 468.669C40.2174 468.398 40.8061 468.128 41.3107 467.857C43.1608 468.037 44.3381 469.301 45.8518 470.383C45.9359 469.12 45.7677 467.767 46.9451 466.865C47.3656 468.128 46.6928 468.94 47.8701 469.842C49.3839 470.925 51.4863 469.571 52.8318 468.849C53.2523 473.09 62.3346 472.819 65.1939 472.729C69.1464 472.639 73.183 470.924 77.1355 471.917C79.1538 472.368 81.3403 472.909 83.4427 473.541C85.8815 474.263 88.909 474.984 91.2637 475.887C92.1887 476.248 93.3661 477.511 94.4593 477.42C95.3003 477.33 95.4685 476.067 96.4776 476.067C97.5709 476.067 97.9073 477.42 98.8323 477.781C100.262 478.323 101.523 477.24 102.785 477.781C103.289 477.962 103.878 478.864 104.551 479.135C105.476 479.586 107.326 479.586 108.335 479.766C109.676 479.913 111.024 479.973 112.372 479.947C113.381 480.037 113.381 480.759 113.801 480.759C114.39 480.849 115.315 478.774 116.072 478.503C117.165 478.052 119.099 479.135 120.193 479.315C112.132 490.848 102.72 501.219 92.1887 510.171C80.9199 519.824 69.3987 529.568 57.373 538.049C46.4405 545.808 35.8444 552.394 27.3507 563.311C20.2026 572.513 8.7655 582.348 10.5315 595.61C12.2975 608.873 25.7529 614.286 36.5172 616.902C50.0566 620.06 64.0166 618.797 77.6401 620.601C83.6593 621.188 89.7192 621.097 95.7208 620.331C102.617 619.519 108.503 614.737 114.474 611.218C125.154 604.903 134.237 596.512 144.749 590.016C157.868 581.896 170.903 573.325 185.367 567.912C192.095 565.386 198.991 562.499 204.373 557.266C205.214 556.454 205.802 555.281 206.727 554.65C208.241 553.567 208.662 554.65 209.587 554.379C210.26 554.108 210.932 553.296 211.521 553.116C213.035 552.484 213.707 552.755 215.389 552.755C213.96 551.853 212.614 549.507 214.128 547.612C216.735 544.364 217.155 549.507 218.165 550.77C219.005 549.597 218.669 548.605 218.501 547.342C219.174 547.793 219.931 548.334 220.603 548.785C220.137 546.394 220.56 543.901 221.781 541.838C222.958 539.853 223.21 540.124 223.547 537.327C227.079 540.756 227.751 532.365 228.088 529.298C228.424 526.32 228.088 524.245 229.938 521.629C231.872 518.832 234.9 517.118 237.338 514.952C241.291 511.524 245.58 507.193 250.962 510.532C255.251 513.148 257.521 519.463 261.558 522.711C263.997 524.696 266.52 524.877 268.118 527.944C269.379 530.38 269.799 533.358 270.977 535.974C273.836 542.109 277.957 549.236 282.666 553.928C287.039 558.349 292.674 558.349 297.803 561.055C302.886 563.946 308.139 566.478 313.529 568.634C319.416 570.799 325.723 571.701 331.442 574.318C334.385 575.671 336.992 577.656 339.936 578.919C343.131 580.272 346.495 581.265 349.775 582.528C362.641 587.49 375.172 593.625 388.627 596.422C394.598 597.685 400.148 601.023 406.203 601.655C408.641 601.923 411.057 602.375 413.435 603.008C417.388 604.091 416.547 604.632 418.061 608.241C420.5 614.105 426.302 610.587 430.843 610.767C438.076 611.038 445.224 609.775 452.456 609.685C465.07 609.594 477.264 608.061 489.542 603.64C501.4 598.768 515.444 587.941 505.184 573.055" fill="#333C55"/>
<path fill-rule="evenodd" clip-rule="evenodd" d="M359.025 116.626C359.194 116.807 359.615 116.897 359.025 116.626Z" fill="#333C55"/>
<path fill-rule="evenodd" clip-rule="evenodd" d="M136.171 365.456C138.946 362.479 150.635 363.11 151.476 368.433C152.486 374.388 142.058 383.41 138.189 385.936C133.312 389.184 127.257 389.816 128.098 381.606C128.855 375.471 132.303 369.696 136.171 365.456V365.456ZM145.842 359.321C146.178 360.945 143.571 360.404 142.815 360.043C142.478 359.231 145.506 357.607 145.842 359.321ZM125.659 370.238C128.014 370.418 130.621 366.448 132.387 365.095C133.143 366.358 128.014 373.486 127.509 375.11C126.079 379.17 125.323 384.222 127.257 388.282C132.891 400.101 147.272 383.23 150.804 377.365C153.327 373.215 155.093 368.163 151.476 364.103C150.215 362.659 148.113 362.298 146.935 360.945C145.422 359.141 146.599 356.795 143.487 357.246C141.385 357.517 138.778 359.592 136.676 360.313C134.188 361.077 131.831 362.265 129.696 363.832C129.275 364.193 122.8 369.967 125.659 370.238" fill="#333C55"/>
<path fill-rule="evenodd" clip-rule="evenodd" d="M290.487 374.207C289.058 382.327 281.573 390.628 273.668 390.898C265.847 391.259 263.324 382.418 264.67 375.38C265.847 369.426 270.64 358.96 277.536 360.133C282.918 361.035 291.749 367.26 290.487 374.207V374.207ZM285.441 360.674C280.48 356.524 273.584 354.629 267.865 357.877C266.015 358.96 258.447 363.652 260.717 366.9C263.829 364.373 266.436 360.764 270.472 359.952C269.799 363.291 265.931 366.268 264.586 369.516C262.936 373.386 262.186 377.627 262.399 381.876C262.904 389.274 267.529 395.049 274.677 394.056C281.237 393.154 287.039 387.741 290.151 381.606C294.356 373.486 292.001 366.088 285.441 360.674Z" fill="#333C55"/>
<path fill-rule="evenodd" clip-rule="evenodd" d="M239.357 392.613C235.825 398.206 230.443 403.529 224.219 405.244C216.146 407.499 218.417 400.372 220.856 395.229C222.958 390.718 226.658 382.869 232.209 382.959C234.672 383.116 237.078 383.823 239.273 385.034C242.468 387.109 241.207 389.635 239.357 392.613V392.613ZM231.788 380.252C233.05 378.719 238.684 372.223 239.441 377.275C241.039 375.29 239.777 373.576 237.675 373.395C235.152 373.125 232.461 376.102 230.695 377.636C227.09 380.464 224.033 384.019 221.697 388.101C219.005 392.793 212.11 403.439 218.165 408.131C224.724 413.183 234.143 403.89 238.263 399.018C240.87 395.951 244.318 391.44 243.309 386.929C242.132 381.335 236.077 380.703 231.788 380.252Z" fill="#333C55"/>
<path fill-rule="evenodd" clip-rule="evenodd" d="M204.036 289.76C200.42 294.272 192.936 300.767 186.881 299.955C181.33 299.234 183.517 292.557 185.451 289.309C188.395 284.437 192.347 279.836 198.15 279.565C200.588 279.475 203.868 279.475 205.718 281.55C208.325 284.257 205.971 287.415 204.036 289.76ZM203.616 277.31C199.327 275.686 197.645 275.145 193.524 277.671C190.166 279.701 187.243 282.468 184.947 285.791C181.499 290.663 178.051 301.579 186.881 302.933C196.468 304.467 219.426 283.174 203.616 277.31" fill="#333C55"/>
<path fill-rule="evenodd" clip-rule="evenodd" d="M216.735 305.188C214.009 308.357 210.468 310.587 206.559 311.594C208.241 307.624 211.941 298.873 216.399 297.61C218.417 297.068 220.772 297.79 220.603 300.316C220.519 302.121 217.828 304.015 216.735 305.188ZM220.351 294.632C218.08 293.369 218.753 292.557 216.062 293.55C213.702 294.349 211.485 295.569 209.503 297.159C208.578 297.971 205.55 300.948 205.971 302.482C206.643 305.188 208.83 301.038 209.419 300.226C210.428 301.128 205.298 308.978 204.961 310.241C203.784 315.022 207.316 315.564 210.848 314.03C215.558 311.774 229.349 299.504 220.351 294.632Z" fill="#333C55"/>
<path fill-rule="evenodd" clip-rule="evenodd" d="M288.637 424.28C288.973 421.123 289.478 417.694 292.169 415.89C294.608 414.266 297.215 414.536 297.551 417.784C297.888 420.852 295.112 426.355 292.842 427.979C289.73 430.415 289.057 427.528 288.637 424.28V424.28ZM292.758 431.588C299.233 427.528 303.354 408.762 291.412 413.995C284.516 416.972 287.039 435.107 292.758 431.588Z" fill="#333C55"/>
<path fill-rule="evenodd" clip-rule="evenodd" d="M237.17 353.908C238.179 351.652 239.357 350.931 241.459 349.938C240.114 351.291 238.684 352.645 237.17 353.908ZM238.684 348.314C237.17 349.938 233.806 352.284 234.311 355.081C234.731 357.607 236.497 357.426 238.095 356.614C241.459 354.99 243.309 347.863 246.841 347.231C242.973 344.615 242.048 344.705 238.684 348.314Z" fill="#333C55"/>
<path fill-rule="evenodd" clip-rule="evenodd" d="M239.189 207.208L239.693 229.944C239.777 232.56 239.189 236.44 239.861 238.966C240.198 240.049 243.141 244.921 244.234 245.282C247.935 246.364 246.589 236.44 246.673 234.004C246.757 225.794 246.673 217.493 246.589 209.283C246.589 205.043 247.682 169.406 242.552 169.586C241.627 169.586 239.525 173.646 239.189 174.548C238.179 177.074 238.516 180.954 238.6 183.661C238.6 191.42 239.02 199.269 239.189 207.208" fill="#333C55"/>
<path fill-rule="evenodd" clip-rule="evenodd" d="M270.304 229.222C270.556 231.297 270.472 234.816 272.659 235.898C274.593 236.801 275.266 235.718 276.023 234.004C277.705 229.944 277.032 223.809 277.032 219.659C276.948 211.358 276.107 203.148 275.518 194.938C275.266 191.329 275.77 187.72 275.35 183.931C275.182 182.307 275.013 175.631 272.154 175.901C269.547 176.172 269.799 183.209 269.631 185.014C268.454 199.9 268.202 214.245 270.304 229.222" fill="#333C55"/>
<path fill-rule="evenodd" clip-rule="evenodd" d="M392.664 401.544C391.57 407.589 373.658 428.521 369.117 416.792C366.426 409.845 372.228 402.266 376.77 398.206C379.545 395.68 383.077 393.244 386.861 394.056C390.141 394.688 393.421 397.755 392.664 401.544V401.544ZM383.413 390.718C382.152 391.079 371.556 399.018 371.472 398.928C370.546 397.936 377.19 387.289 377.947 386.297C383.581 378.628 387.366 384.402 390.898 390.447C390.141 386.838 388.038 381.606 384.591 380.072C380.218 378.177 376.77 382.869 374.667 386.297C371.724 391.169 370.042 396.402 368.36 401.815C367.648 404.38 366.63 406.837 365.333 409.123C363.987 411.469 361.716 413.995 362.053 416.882C363.903 415.799 364.912 413.544 366.089 411.739C367.435 412.281 366.93 416.792 367.183 417.965C367.436 419.377 368.088 420.672 369.051 421.672C370.014 422.673 371.241 423.332 372.565 423.558C377.863 424.461 383.581 419.228 387.113 415.709C390.814 411.92 394.85 406.777 394.85 401.003C394.85 395.139 389.3 389.274 383.413 390.718" fill="#333C55"/>
<path fill-rule="evenodd" clip-rule="evenodd" d="M397.794 293.911C394.766 298.873 389.552 304.737 383.918 305.91C379.797 306.722 377.106 303.474 378.788 299.144C380.218 295.444 384.927 293.099 388.038 291.475C390.477 290.121 401.914 287.054 397.794 293.911ZM395.523 285.881C389.384 285.61 384.422 290.392 379.797 294.181C380.806 289.851 383.161 285.069 386.441 282.182C390.898 278.302 395.187 280.738 399.896 282.633C398.719 278.663 393.505 277.31 390.141 277.851C385.936 278.573 382.909 282.453 380.806 286.152C378.283 290.573 377.358 295.896 374.415 300.046C373.069 301.94 364.576 309.068 366.51 312.045C369.706 308.436 372.817 304.828 376.013 301.219C376.854 305.459 377.779 310.331 382.825 309.88C386.861 309.519 391.486 305.82 394.43 303.023C398.382 299.414 405.867 286.242 395.523 285.881" fill="#333C55"/>
<path fill-rule="evenodd" clip-rule="evenodd" d="M309.493 327.924C306.886 329.187 301.167 330.992 299.738 327.112C297.719 321.789 304.195 312.316 307.306 308.797C309.241 306.632 310.502 305.459 313.193 306.903C315.295 308.075 318.407 311.233 319.248 313.759C320.93 318.992 313.529 325.939 309.493 327.924V327.924ZM315.464 302.211C317.566 302.752 317.818 305.639 315.211 304.467C313.193 303.655 312.688 301.489 315.464 302.211ZM318.071 306.271C317.314 303.655 318.912 299.595 314.959 299.414C312.773 299.324 308.736 301.76 306.802 302.662C304.021 303.925 301.712 306.148 300.242 308.978C298.981 311.684 299.906 312.406 301.84 310.15C302.092 310.331 297.383 323.323 297.299 324.676C297.131 330.631 301.083 334.51 306.549 333.518C311.595 332.525 316.22 328.104 318.996 323.593C320.547 321.36 321.48 318.702 321.687 315.925C321.855 311.684 319.248 309.97 318.071 306.271" fill="#333C55"/>
<path fill-rule="evenodd" clip-rule="evenodd" d="M342.458 304.106C340.356 299.685 345.318 292.287 349.691 294.452C358.941 298.873 345.234 309.88 342.458 304.106ZM350.7 298.332C349.691 298.332 343.468 300.948 344.393 302.752C345.654 305.098 350.195 299.234 350.7 298.332V298.332Z" fill="#333C55"/>
<path fill-rule="evenodd" clip-rule="evenodd" d="M47.5337 290.121C47.2815 288.227 43.3289 290.933 43.413 292.196C44.0017 290.753 48.0383 294.091 47.5337 290.121Z" fill="#333C55"/>
<path fill-rule="evenodd" clip-rule="evenodd" d="M262.651 147.843C267.697 147.482 261.306 120.325 257.606 122.761C253.737 125.287 258.11 148.204 262.651 147.843Z" fill="#333C55"/>
<path fill-rule="evenodd" clip-rule="evenodd" d="M272.07 135.212C276.779 135.934 276.023 124.385 273.5 122.31C268.79 118.431 266.352 134.31 272.07 135.212Z" fill="#333C55"/>
</svg>
