<svg width="536" height="331" viewBox="0 0 536 331" fill="none" xmlns="http://www.w3.org/2000/svg">
<g clip-path="url(#clip0_298_10267)">
<path fill-rule="evenodd" clip-rule="evenodd" d="M395.046 267.008C392.517 269.925 388.753 272.112 385.888 274.804C382.854 277.608 379.595 280.075 376.561 282.88C363.302 266.672 345.098 256.745 329.367 243.341C321.895 236.948 316.389 228.311 312.4 219.45C310.357 214.923 308.758 210.209 307.624 205.374C307.062 203.187 306.557 200.999 306.219 198.812C305.77 196.12 305.658 195.896 303.86 193.821C303.073 192.923 301.556 190.288 300.039 190.568C298.747 190.792 296.387 194.718 295.601 195.671C291.724 200.326 287.904 205.093 283.802 209.524C277.51 216.366 271.779 223.04 265.936 230.274C254.025 245.08 241.103 258.988 228.124 272.897C227.169 273.906 224.922 276.935 223.517 277.384C221.832 277.888 219.079 275.813 217.393 274.692C213.292 271.887 210.089 268.466 206.606 265.045C199.808 258.316 195.145 248.894 192.054 239.92C190.2 234.537 188.964 228.984 187.054 223.601C186.268 221.357 184.413 218.609 185.369 216.702C185.65 216.142 187.391 214.571 188.009 214.459C188.74 214.347 189.976 215.3 190.2 215.244C192.616 214.571 191.268 212.048 192.729 210.702C193.515 209.916 197.673 210.029 198.909 209.636C203.46 208.066 207.505 205.149 211.775 203.355C229.697 195.952 247.789 188.773 263.239 176.716C267.228 173.575 269.925 171.22 274.7 169.201C279.532 167.182 284.364 165.331 289.308 163.536C293.634 161.926 298.041 160.54 302.511 159.386C307.343 158.152 314.254 156.638 319.142 158.208C328.693 161.293 331.783 169.144 335.547 177.389C340.66 188.605 346.896 199.149 353.638 209.468C366.673 229.265 382.404 247.043 395.046 267.008Z" fill="#FFBA15"/>
<path fill-rule="evenodd" clip-rule="evenodd" d="M107.892 91.7517C107.386 91.4713 103.284 93.1538 102.61 93.3781C99.8573 94.3876 97.2728 96.0701 94.6884 97.4721C96.6548 99.8837 98.6774 102.295 100.644 104.707C102.554 99.9958 105.026 96.0701 107.892 91.7517ZM109.24 121.363C108.566 121.419 114.24 135.103 114.914 136.618C117.33 142.226 119.859 147.722 122.331 153.274C124.69 158.658 127.724 163.649 130.758 168.697C133.343 173.015 136.039 179.689 139.972 182.886C137.5 171.95 137.837 159.331 130.702 150.134C123.342 140.656 116.094 131.346 109.24 121.363ZM395.046 267.514C384.034 250.128 370.269 234.762 358.807 217.713C352.402 208.179 346.166 198.477 340.716 188.326C336.783 180.923 334.367 170.379 328.3 164.715C325.603 162.247 322.794 159.78 319.198 158.658C314.31 157.144 307.512 158.658 302.568 159.836C293.353 162.079 284.364 165.556 275.656 169.258C266.835 172.959 259.306 179.689 251.328 185.017C242.788 190.793 233.518 194.999 223.911 198.645C215.539 201.842 208.123 206.44 199.808 209.637C198.178 210.254 194.751 210.198 193.403 211.039C191.886 211.936 192.504 214.628 190.706 215.582C189.863 216.03 189.639 214.404 188.964 214.46C188.178 214.516 187.504 215.413 186.773 215.974C183.739 218.274 185.593 219.844 186.773 223.041C190.65 233.472 192.785 244.072 198.235 253.942C202.795 262.131 209.13 269.201 216.775 274.636C217.955 275.478 221.663 278.618 223.068 278.394C224.304 278.226 226.776 274.973 227.619 274.076C231.439 270.094 234.923 265.775 238.743 261.794C244.642 255.625 250.317 249.287 256.048 243.062C262.677 235.827 268.577 227.583 274.532 219.844C277.285 216.255 280.825 213.394 283.858 210.086C287.96 205.655 291.724 200.832 295.657 196.233C296.837 194.831 298.803 191.242 300.657 191.298C301.949 191.354 304.197 194.326 304.871 195.28C307.343 198.813 307.343 205.15 308.579 209.525C311.613 220.237 317.063 230.724 324.591 238.968C332.064 247.212 341.615 253.045 350.436 259.662C359.987 266.841 369.033 274.132 376.617 283.385C379.651 280.581 382.91 278.17 385.944 275.309C388.753 272.617 392.517 270.43 395.046 267.514ZM253.575 316.698C255.71 316.698 259.306 318.044 261.216 317.259C255.542 310.978 250.317 305.594 243.182 301.051C235.709 296.284 228.293 291.573 221.101 286.47C206.55 276.207 195.819 264.093 189.695 247.044C188.122 242.669 187.054 238.071 185.93 233.528C185.312 231.117 184.076 219.732 181.998 218.722C180.762 218.161 171.435 224.667 169.974 225.508C166.565 227.327 163.058 228.956 159.468 230.387C151.774 233.552 143.847 236.12 135.759 238.071C125.983 240.538 119.353 236.444 113.341 228.817C106.487 220.124 100.812 210.366 94.5198 201.225C91.7082 197.169 89.2639 192.871 87.216 188.382C85.8114 185.409 80.3616 177.333 82.2718 174.137C87.6655 178.231 89.5757 186.363 93.2838 191.859C97.8347 198.701 103.004 205.15 107.611 211.936C111.487 217.657 115.42 224.611 121.151 228.761C126.151 232.406 130.927 231.285 136.32 229.658C142.894 227.695 149.636 226.686 156.097 224.274C163.064 221.639 169.637 217.881 176.379 214.797C179.526 213.394 183.346 212.553 186.324 210.759C188.908 209.244 188.515 208.403 188.683 205.15C188.908 201.337 189.133 197.523 189.301 193.71C189.414 191.13 188.009 187.653 188.964 185.746C181.267 187.092 173.739 188.886 166.098 190.457C161.94 191.298 157.895 192.364 153.681 193.093C152.052 193.373 149.861 193.317 148.4 194.046C147.276 193.71 146.658 193.934 146.658 194.663C146.591 195.061 146.497 195.455 146.377 195.841C144.018 196.906 142.669 194.607 140.59 192.42C138.167 189.67 136.057 186.66 134.298 183.446C130.14 176.324 125.365 169.594 121.544 162.247C117.611 154.732 114.465 146.712 111.15 138.973C108.116 131.851 106.15 124.111 102.835 117.157C101.325 114.162 99.4367 111.373 97.2166 108.857C95.3626 106.67 92.5534 102.015 89.8566 101.005C89.1262 100.725 87.216 101.174 86.4294 101.118C84.8001 101.005 83.3393 100.388 81.6538 100.557C78.0019 100.837 74.069 103.136 71.2037 105.155C73.0577 106.838 77.7771 108.857 74.4061 111.829C71.1475 114.746 69.3496 109.53 68.1136 107.23C62.2705 112.054 63.1132 118.671 62.439 125.457C62.1019 128.99 61.1468 132.524 60.5288 136.001C60.0793 138.524 60.4164 141.104 60.3041 143.684C59.967 150.19 59.3489 156.471 59.3489 162.864C59.4051 169.762 59.8546 176.38 60.4164 183.222C61.3715 194.719 63.4503 206.216 65.3044 217.601C66.3157 223.994 67.7203 230.219 69.0687 236.557C70.6418 243.735 73.451 250.465 75.0803 257.643C76.7097 255.568 77.9457 255.568 80.5863 255.849C82.6089 256.073 83.9573 255.568 83.845 258.373C83.7888 260.223 82.1595 261.569 80.3616 261.906C78.0581 262.298 77.2153 261.177 76.0354 259.382C75.7545 262.691 78.0019 266.224 78.9008 269.477C79.7436 272.561 80.3054 275.59 81.71 278.562C83.1146 281.422 84.2944 284.283 85.6428 287.143C86.2609 288.433 86.8789 289.779 87.5531 291.125C87.8787 291.87 88.2737 292.584 88.7329 293.256C89.8566 294.546 89.6881 293.929 91.0365 294.658C93.958 296.284 92.8905 295.892 92.9467 299.257C93.0029 302.565 94.6884 304.977 97.4414 306.884C103.228 310.81 108.959 311.931 115.532 313.95C121.656 315.801 128.118 317.427 134.635 317.371C142.613 317.315 150.422 316.306 158.401 316.194C167.165 316.081 176.042 316.137 184.807 316.418C188.403 316.53 191.774 316.698 195.257 317.596C199.302 318.661 203.235 318.269 207.393 318.1C216.27 317.764 225.484 317.091 234.248 316.979C240.541 316.754 247.227 316.306 253.575 316.698ZM484.209 320.119C485.782 320.961 489.322 320.624 490.951 320.4C493.76 320.007 494.041 318.885 495.839 316.418C498.873 312.099 501.401 308.005 503.199 303.014C506.626 293.48 508.031 283.778 509.548 273.795C511.233 262.747 508.143 251.25 507.076 240.258C506.851 237.734 506.458 235.267 506.064 232.743C505.84 231.229 505.783 226.181 504.772 224.891C502.862 222.424 494.041 224.387 490.614 224.611C480.95 225.228 471.231 225.396 461.567 225.508C456.398 225.564 451.229 225.789 446.117 225.845C443.757 225.845 441.509 225.733 439.15 225.508C438.363 225.452 437.577 225.228 436.79 225.228C434.093 225.06 434.262 224.667 433.588 227.079C432.352 231.285 433.307 236.613 432.97 240.987C432.52 246.82 432.295 252.708 432.408 258.541C432.52 263.925 432.295 269.309 432.52 274.749C432.595 276.85 432.896 278.937 433.419 280.974C434.093 283.385 434.824 289.05 436.509 290.732C436.678 290.9 438.138 290.452 438.476 290.956C439.037 291.685 438.925 293.256 439.374 293.704C440.667 295.219 443.307 295.331 445.274 296.06C450.458 297.896 455.525 300.05 460.443 302.509C464.882 304.753 472.073 306.716 474.77 311.202C476.006 313.277 476.175 315.969 477.298 318.1C478.591 320.512 476.006 319.278 479.152 320.231C480.501 320.568 482.804 320.119 484.209 320.119ZM14.1212 292.807C13.7279 298.359 10.5816 303.687 9.45794 309.183C8.95229 311.763 8.05335 314.287 7.49152 316.81C6.92968 319.278 4.85089 322.138 5.01944 324.55C12.7166 321.802 20.5261 321.129 28.5603 320.4C36.2013 319.727 44.2356 319.446 51.8203 319.39C59.5175 319.39 67.7765 318.661 75.6983 318.493C84.0135 318.381 92.4411 318.156 100.588 317.315C96.3177 314.175 90.9803 311.202 87.7778 306.772C84.3506 302.005 82.5527 296.004 79.5188 290.956C73.451 280.806 69.5743 268.243 66.4281 256.858C60.0231 233.865 52.8316 211.319 51.09 187.484C47.7751 189.167 45.1907 195.672 43.5614 198.925C41.4826 203.075 40.3589 207.562 39.0105 211.992C36.2013 221.078 34.2349 230.5 30.8077 239.473C24.2904 256.746 20.0766 275.309 14.1212 292.807ZM432.183 158.938C433.588 169.202 436.621 179.633 436.734 190.008C436.734 192.307 436.397 194.831 436.846 197.074C437.352 199.486 439.037 201.617 439.992 203.917C441.509 207.562 445.386 215.021 441.622 218.049C441.566 215.133 438.869 211.432 437.52 208.852C435.498 204.982 432.801 201.505 430.61 197.747C426.041 189.803 420.776 182.277 414.878 175.258C409.092 168.529 402.406 162.528 396.282 156.078C394.428 154.171 379.651 135.552 379.033 135.833C383.64 153.498 391.45 168.865 402.125 183.671C407.35 190.905 413.642 195.672 420.047 201.841C425.329 206.945 435.385 212.441 433.531 220.797C441.847 220.012 450.049 218.722 458.421 218.722C457.016 208.123 456.005 197.747 453.533 187.316C450.724 175.483 448.87 163.313 446.51 151.423C444.094 139.254 439.992 127.476 437.464 115.306C435.048 103.697 432.913 92.0882 431.172 80.3109C429.711 86.8165 430.217 93.995 429.711 100.613C429.224 107.369 429.13 114.148 429.43 120.915C429.655 133.757 431.003 146.264 432.183 158.938ZM468.14 98.4255C468.197 92.9855 469.264 87.6577 469.545 82.2177C469.657 80.5353 471.287 69.2066 469.77 68.6458C468.478 71.3938 468.197 74.9831 467.017 77.8433C465.837 80.7596 464.32 83.5076 463.196 86.4239C460.78 92.7612 459.994 99.9398 459.713 106.67C459.151 121.924 458.814 137.066 459.825 152.321C460.275 158.826 460.612 165.388 460.499 171.95C460.387 179.128 459.263 185.409 460.612 192.532C461.919 199.556 462.782 206.655 463.196 213.787C463.533 218.834 463.646 218.442 468.421 218.105C471.905 217.825 475.388 218.105 478.872 217.937C477.242 198.308 476.961 178.679 474.377 159.107C473.028 149.124 473.028 139.029 471.343 129.103C470.5 124.167 469.152 119.344 468.365 114.409C467.635 109.081 468.084 103.753 468.14 98.4255ZM116.375 86.0874C125.646 86.8726 135.478 89.6767 144.973 87.826C143.4 87.2091 139.298 86.3117 141.152 83.8441C143.006 81.3204 146.209 84.5171 148.063 84.1806C149.243 83.9563 151.771 79.1893 152.445 78.1798C154.074 75.9365 154.243 75.5439 157.165 74.927C159.974 74.3662 160.592 74.9831 160.985 72.179C161.378 68.9823 160.311 65.393 160.367 62.0841C160.592 55.0178 162.895 48.8487 165.03 42.231C156.041 44.1939 147.22 46.4932 138.006 47.7831C134.073 48.344 127.949 49.5778 124.353 46.8858C123.398 46.2128 123.567 45.2594 122.836 44.4182C121.32 42.9218 119.443 41.8403 117.387 41.2776C106.262 38.9221 105.139 54.7934 110.757 60.7382C112.161 62.2524 114.128 62.9815 115.532 64.3274C117.443 66.1221 117.611 68.085 117.892 70.833C118.479 76.024 117.644 81.2767 115.476 86.0313L116.375 86.0874ZM251.665 161.014C254.98 161.63 258.407 161.518 261.666 162.023C262.846 162.191 266.329 162.864 267.397 162.191C268.97 161.126 269.532 157.312 270.262 155.517C271.554 152.377 273.408 149.629 274.644 146.432C279.757 133.365 284.476 120.298 290.657 107.679C288.297 107.062 286.499 107.062 284.083 106.726C281.611 106.389 279.364 104.931 277.004 104.314C274.757 103.697 272.397 103.866 270.15 103.193C268.914 102.8 267.846 101.959 266.666 101.678C264.756 101.23 262.509 100.949 261.329 102.183C260.149 103.473 259.756 107.062 259.081 108.689C257.396 113.175 255.373 117.437 253.969 122.036C252.677 126.13 251.441 130.224 250.317 134.374C249.137 138.749 246.777 142.394 245.316 146.6C244.249 149.797 243.182 153.05 243.013 156.471C242.844 159.78 242.395 160.004 245.71 160.509C247.508 160.733 250.092 161.743 251.665 161.014ZM468.253 316.418C468.632 316.613 469.058 316.701 469.484 316.672C469.91 316.642 470.32 316.496 470.669 316.25C463.252 313.109 456.005 308.791 448.251 306.603C441.004 304.584 433.925 302.173 426.902 299.705C421.227 297.686 416.114 296.116 410.946 292.583C407.796 290.54 405.068 287.913 402.911 284.843C400.495 281.31 399.99 276.319 397.405 273.178C393.922 276.992 389.821 279.908 385.663 282.937C384.258 284.002 380.775 286.302 380.326 287.928C379.708 290.003 381.337 291.966 382.18 294.041C384.258 299.369 385.326 304.697 386.45 310.249C386.899 312.492 387.91 315.801 389.708 316.754C391.394 317.596 396.169 316.979 398.248 316.81C409.035 315.969 419.654 315.184 430.554 315.913C442.858 316.754 456.005 317.315 468.253 316.418ZM489.827 217.657C491.794 217.657 493.704 217.432 495.67 217.432C494.547 212.161 497.187 205.375 498.142 200.103C499.21 194.214 499.997 188.157 500.671 182.213C502.113 169.815 502.826 157.343 502.806 144.862C502.806 132.692 505.053 121.588 508.143 109.866C511.458 97.3039 516.964 86.0313 521.459 73.9175C516.514 76.5534 513.762 82.6664 511.177 87.3212C507.91 93.3013 505.597 99.7536 504.323 106.445C501.738 119.232 498.873 132.075 495.895 144.862C492.805 158.153 490.951 171.613 487.355 184.792C485.614 191.242 483.254 199.15 483.141 205.767C483.085 208.515 482.243 214.292 483.479 216.647C484.715 218.891 487.299 217.881 489.827 217.657ZM193.459 201.112C193.347 202.458 193.234 203.804 193.01 205.15C195.706 205.15 199.19 202.29 201.493 201.056C204.359 199.542 207.168 197.804 209.977 196.289C215.371 193.317 221.439 191.354 227.169 188.886C233.743 186.082 239.811 182.661 246.103 179.24C248.294 178.063 264.082 171.221 263.857 169.37C260.374 169.258 256.946 169.145 253.463 169.033C250.485 168.921 245.878 169.594 243.013 168.697C241.44 168.192 239.698 166.341 239.136 164.883C238.574 163.425 239.867 156.863 239.08 156.415C235.203 160.397 232.731 165.612 229.304 169.875C225.484 174.585 220.54 177.333 215.034 179.857C209.022 182.605 202.729 184.792 196.605 187.148C194.021 188.157 194.077 188.718 193.852 191.578C193.515 194.719 193.571 197.916 193.459 201.112ZM506.907 320.792C513.424 321.465 520.166 321.073 526.74 321.633C529.156 321.858 532.471 322.138 530.055 325.335C528.538 327.354 523.65 326.737 521.459 326.849C515.559 327.242 509.267 327.017 503.311 326.961C502.075 326.961 500.671 326.569 499.435 326.681C497.974 326.793 496.232 327.803 494.884 327.803C494.041 327.803 493.76 326.961 493.086 326.849C491.557 326.672 490.019 326.578 488.479 326.569C464.994 326.569 441.847 326.12 418.418 326.064C407.238 326.064 395.832 325.84 384.652 325.335C382.292 325.223 368.92 325.728 369.257 321.465C369.426 319.278 373.808 318.998 375.438 318.773C376.617 318.605 377.853 318.605 379.033 318.549C382.18 318.381 383.584 319.11 382.91 315.689C380.382 302.678 375.887 291.91 366.224 282.544C358.358 274.861 348.863 267.963 339.93 261.513C329.086 253.718 320.322 245.586 313.86 233.696C310.096 226.742 306.95 219.676 305.04 211.992C304.365 209.244 304.309 206.104 303.466 203.412C302.792 201.337 301.332 199.935 300.433 197.804C289.645 215.75 275.375 230.836 262.284 247.044C255.903 254.854 248.915 262.149 241.384 268.86C239.192 270.879 237.114 272.954 235.035 275.085C233.293 276.88 230.54 278.506 229.079 280.469C227.675 282.376 228.012 282.32 230.147 283.834C232.956 285.853 236.102 287.535 238.968 289.498C243.575 292.639 248.575 295.275 252.677 299.032C257.115 303.126 260.992 307.837 264.868 312.436C267.453 315.521 270.824 319.446 271.498 323.316C271.723 324.606 272.509 327.746 271.442 328.7C270.543 329.485 270.599 329.205 269.475 328.7C267.958 328.083 267.509 326.569 265.711 325.896C261.048 324.101 255.373 324.718 250.485 324.718C245.597 324.718 240.709 325.223 235.821 325.223C224.697 325.167 213.798 326.064 202.673 326.569C190.875 327.073 178.908 325.84 167.109 326.008C158.401 326.12 149.411 325.503 140.478 325.952C135.871 326.176 131.32 325.615 126.825 325.559C120.926 325.447 114.914 326.288 108.959 326.401C99.1831 326.569 89.5757 326.569 79.7997 326.849C58.6747 327.354 37.7183 327.859 16.5933 328.195C13.7841 328.251 10.694 328.139 7.8848 328.476C4.90707 328.812 6.48021 329.429 4.4576 330.495C-1.21694 333.467 0.0752868 322.475 0.243837 320.288C0.974224 308.678 3.95195 297.294 7.49152 286.302C10.8625 275.87 13.6155 264.934 16.4247 254.222C19.571 242.557 23.6162 231.341 27.3243 219.732C31.0886 207.898 34.1787 195.56 41.0331 185.073C42.6062 182.661 44.2356 180.082 46.7076 178.567C49.5168 176.885 49.6292 177.838 49.6292 174.754C49.6292 171.837 49.7977 167.968 49.1235 165.164C48.5055 162.64 48.6179 164.154 47.2133 162.359C46.0896 160.901 44.8536 159.892 44.067 158.097C39.0105 163.201 27.4929 160.509 22.6611 156.863C16.7056 152.377 12.1547 144.806 10.5254 137.571C9.17702 131.795 10.8063 120.746 17.2675 117.942C20.4137 116.596 31.8752 115.531 32.3808 111.156C32.6056 108.857 28.5604 105.66 27.6614 103.697C25.7648 99.7593 24.4586 95.5643 23.7847 91.247C22.8296 83.4515 26.3692 74.7588 32.0437 69.487C42.3815 59.8409 60.585 54.9056 73.9005 61.0186C71.0913 50.3068 69.4058 41.0532 70.8104 29.8928C72.0464 20.3028 77.721 14.9188 85.5305 10.0958C98.846 1.90773 116.993 -1.28897 132.275 1.06649C135.759 1.62731 139.073 2.74896 142.276 3.70236C146.939 5.04834 152.501 4.59968 156.94 6.7869C160.142 8.3572 162.558 11.4978 165.367 13.5729C168.626 16.0405 171.379 19.6858 173.626 23.0508C178.514 30.2854 176.604 43.6891 172.503 50.9238C171.662 52.45 170.514 53.7865 169.132 54.8495C167.615 55.9712 165.311 56.3077 164.581 57.7097C162.614 61.3551 164.525 69.3188 164.749 73.3006C165.03 77.8994 162.727 81.3765 157.502 81.713C154.468 81.9373 154.355 80.1988 152.951 83.788C151.996 86.1435 151.153 88.6672 149.804 90.7983C146.995 95.2288 141.883 94.7802 137.219 94.668C131.826 94.5559 126.488 93.6585 121.095 93.1538C122.499 97.6965 126.432 101.23 128.848 105.324C132.163 110.82 134.129 115.362 134.691 121.756C135.084 126.691 134.242 130.561 130.814 134.206C129.41 135.72 128.174 135.776 128.511 137.571C128.736 138.637 130.59 140.375 131.208 141.272C132.949 143.516 134.972 145.591 136.489 148.002C142.332 157.256 144.074 171.389 144.074 182.157C144.074 182.661 144.355 183.727 144.13 184.232C143.961 184.624 142.725 185.802 142.725 185.914C142.501 187.316 143.849 189.672 145.984 189.896C148.231 190.12 152.277 188.27 154.355 187.653C157.67 186.699 161.041 185.97 164.356 184.961C169.693 183.334 175.031 182.044 180.481 180.755C182.953 180.194 185.425 179.689 187.897 179.184C190.706 178.567 191.998 177.39 193.459 180.25C194.695 182.717 193.909 183.166 196.942 181.932C199.92 180.698 202.842 179.184 205.763 177.782C210.932 175.371 217.056 173.183 221.495 169.594C228.911 163.593 231.664 154.003 238.743 147.666C240.709 145.871 241.889 145.871 243.125 143.404C244.474 140.768 245.148 137.403 245.878 134.543C247.114 129.607 248.013 124.616 249.081 119.681C250.485 113.512 253.463 107.903 255.654 102.071C256.497 99.7715 256.946 96.8552 258.351 94.7802C258.688 94.2194 259.419 93.9389 259.699 93.4903C260.655 91.92 260.655 91.5274 260.936 89.6206C262.115 80.8717 267.34 85.4705 273.015 87.4895C275.431 88.3307 286.836 93.7707 282.454 97.4161C287.623 98.9303 295.938 98.089 295.882 105.548C295.825 109.362 293.578 113.4 292.342 116.989C291.275 120.129 290.207 123.326 289.083 126.467C286.668 133.365 283.746 140.095 281.386 147.049C280.319 150.19 279.42 153.442 277.903 156.415C276.555 159.051 273.408 161.967 272.846 164.827C286.668 158.938 299.477 150.414 314.984 150.975C321.782 151.199 327.906 154.059 331.671 160.004C336.39 167.463 339.48 175.819 344.031 183.334C360.717 210.703 380.606 235.603 398.979 261.85C400.383 263.869 402.181 265.775 402.687 268.243C403.024 269.869 402.406 271.496 402.743 273.066C403.529 276.319 407.518 280.357 410.271 282.208C415.496 285.797 423.924 290.844 430.441 290.396C426.34 280.637 426.396 269.926 426.621 259.438C426.789 249.512 427.857 239.697 429.149 229.883C429.374 227.706 429.768 225.549 430.329 223.433C431.059 220.966 432.071 221.19 429.879 219.003C426.508 215.582 422.463 212.778 419.092 209.3C411.732 201.842 404.147 195.953 398.361 187.036C392.855 178.567 387.011 169.818 382.966 160.509C378.752 150.919 377.067 140.712 374.988 130.561C374.145 126.467 371.055 121.868 371.673 117.55C372.46 112.11 374.988 116.091 375.999 119.008C379.146 127.925 386.45 135.889 392.574 143.067C399.147 150.807 407.181 157.312 414.036 164.827C421.508 173.015 426.621 182.437 433.25 191.186C433.25 180.306 429.542 169.258 428.025 158.546C426.677 149.068 426.284 139.59 425.441 130.112C423.531 108.52 425.16 86.3678 427.857 64.9444C429.149 54.7934 428.419 44.8668 428.475 34.6598C428.475 31.4071 427.126 23.9481 428.868 21.0318C432.183 15.5357 434.093 27.5935 434.262 29.3881C435.273 40.0998 433.475 50.6994 434.374 61.4112C435.329 72.5716 437.408 83.3955 439.15 94.3876C441.06 106.333 444.15 117.998 447.128 129.663C450.218 141.945 452.859 154.508 456.342 166.678C457.297 162.864 455.949 158.153 455.724 154.228C455.331 148.619 454.656 143.067 454.544 137.459C454.432 128.542 454.375 119.456 454.881 110.595C455.387 101.847 455.218 92.649 457.915 84.2367C459.302 80.2345 460.973 76.3362 462.915 72.5715C465.163 67.9167 465.949 63.4301 467.242 58.4949C468.309 54.2326 469.882 50.1386 470.613 45.8202C471.062 43.1283 472.298 35.2207 475.388 41.2215C477.186 44.6986 476.399 49.8582 476.456 53.6157C476.512 58.4388 475.781 63.0936 475.669 67.8606C475.444 77.2264 475.276 86.5922 474.602 95.9579C473.879 105.436 474.484 114.968 476.399 124.28C478.422 134.879 479.04 145.479 480.108 156.247C480.669 161.799 481.568 167.295 482.018 172.847C482.243 175.763 481.063 184.232 483.141 186.307C483.366 181.203 484.827 176.1 485.894 171.164C487.187 165.276 487.749 159.107 488.704 153.162C490.277 143.516 493.311 134.262 495.333 124.728C499.491 105.043 502.918 79.7501 520.279 66.9072C522.526 65.2248 525.054 63.9909 527.527 62.5889C528.931 61.8037 531.01 59.7848 532.583 59.3922C534.325 58.9996 535.055 59.28 535.729 61.299C536.684 64.1031 534.943 65.393 533.257 67.4681C527.47 74.5344 524.998 83.5637 521.402 91.8078C513.2 110.708 509.548 130.673 509.548 151.143C509.473 161.731 508.835 172.309 507.638 182.83C506.401 194.27 504.772 206.384 501.289 217.432C504.772 218.218 508.593 217.04 509.548 221.078C509.772 222.087 509.379 223.265 509.604 224.555C509.939 225.831 510.352 227.086 510.84 228.312C511.521 230.852 512.009 233.439 512.301 236.052C513.705 246.203 516.065 255.905 516.346 266.224C516.571 275.758 514.717 285.404 512.975 294.77C511.233 304.192 506.233 312.212 502.356 320.736C503.536 320.736 505.222 320.736 506.907 320.792Z" fill="#DBEDF3"/>
<path fill-rule="evenodd" clip-rule="evenodd" d="M284.982 299.087C283.128 299.592 274.139 300.602 274.139 303.406C274.139 305.088 283.128 305.032 284.701 305.257C284.814 303.238 284.926 301.162 284.982 299.087ZM304.815 318.492C309.984 319.501 317.007 318.099 320.321 313.557C321.895 311.426 322.625 308.173 323.131 305.649C323.636 303.238 325.097 297.181 324.086 294.937C322.85 292.133 310.939 295.05 307.512 295.386C301.422 295.937 295.298 296.012 289.196 295.61C289.196 301.835 288.859 307.892 292.567 313.276C295.151 317.146 300.095 318.043 304.815 318.492ZM303.804 326.231C298.185 324.156 292.286 325.502 288.634 319.501C287.693 317.97 286.939 316.332 286.387 314.622C286.096 313.881 285.888 313.11 285.769 312.323C286.05 310.64 285.432 310.192 283.915 310.921C280.937 310.36 277.678 312.379 274.532 311.762C266.947 310.304 268.296 299.424 273.408 295.666C274.42 294.937 275.431 294.713 276.555 294.32C279.083 293.535 280.487 294.433 282.791 294.208C284.701 294.04 285.207 292.077 287.229 291.18C288.578 290.619 290.376 290.675 291.78 290.619C299.084 290.339 306.388 290.339 313.692 289.834C317.119 289.61 320.827 290.17 324.142 289.553C325.715 289.273 325.49 288.264 326.951 289.161C328.468 290.114 327.85 293.591 327.738 294.993C327.288 303.069 326.783 311.706 322.456 318.772C318.524 325.222 310.714 325.895 303.804 326.231Z" fill="#DBEDF3"/>
<path fill-rule="evenodd" clip-rule="evenodd" d="M6.92968 328.419C8.72756 328.419 10.5254 328.362 12.3233 328.362C10.5254 328.419 8.72756 328.419 6.92968 328.419Z" fill="#DBEDF3"/>
<path fill-rule="evenodd" clip-rule="evenodd" d="M426.621 256.016C426.565 257.138 426.508 258.316 426.452 259.437C426.452 258.316 426.508 257.138 426.621 256.016Z" fill="#DBEDF3"/>
<path fill-rule="evenodd" clip-rule="evenodd" d="M506.907 320.791C505.783 320.791 504.66 320.791 503.592 320.735C504.117 320.508 504.684 320.396 505.256 320.405C505.827 320.415 506.391 320.547 506.907 320.791Z" fill="#DBEDF3"/>
<path fill-rule="evenodd" clip-rule="evenodd" d="M408.193 325.839C408.979 325.839 409.766 325.839 410.552 325.783C409.822 325.783 408.979 325.783 408.193 325.839Z" fill="#DBEDF3"/>
<path fill-rule="evenodd" clip-rule="evenodd" d="M508.649 170.378C508.649 169.537 508.705 168.64 508.705 167.799C508.705 168.696 508.705 169.537 508.649 170.378Z" fill="#DBEDF3"/>
<path fill-rule="evenodd" clip-rule="evenodd" d="M434.037 61.3542C433.981 60.4568 433.925 59.5595 433.812 58.6622C433.925 59.6156 433.981 60.5129 434.037 61.3542Z" fill="#DBEDF3"/>
<path fill-rule="evenodd" clip-rule="evenodd" d="M509.042 159.723C509.042 158.825 509.042 157.928 509.098 157.031C509.098 157.928 509.042 158.825 509.042 159.723Z" fill="#DBEDF3"/>
<path fill-rule="evenodd" clip-rule="evenodd" d="M258.07 324.717C258.801 324.717 259.475 324.717 260.205 324.773C259.531 324.717 258.801 324.717 258.07 324.717Z" fill="#DBEDF3"/>
<path fill-rule="evenodd" clip-rule="evenodd" d="M440.891 326.175C441.566 326.175 442.296 326.175 442.97 326.231C442.24 326.175 441.566 326.175 440.891 326.175Z" fill="#DBEDF3"/>
<path fill-rule="evenodd" clip-rule="evenodd" d="M515.784 263.531L515.616 261.176L515.784 263.531Z" fill="#DBEDF3"/>
<path fill-rule="evenodd" clip-rule="evenodd" d="M426.396 326.175C426.958 326.175 427.52 326.175 428.082 326.119C427.52 326.175 426.958 326.175 426.396 326.175Z" fill="#DBEDF3"/>
<path fill-rule="evenodd" clip-rule="evenodd" d="M124.297 325.895C124.915 325.839 125.477 325.839 126.095 325.783C125.477 325.783 124.859 325.839 124.297 325.895Z" fill="#DBEDF3"/>
<path fill-rule="evenodd" clip-rule="evenodd" d="M289.589 98.9293C288.69 98.8732 287.791 98.7611 286.948 98.705C287.791 98.7611 288.746 98.2563 289.589 98.9293Z" fill="#DBEDF3"/>
<path fill-rule="evenodd" clip-rule="evenodd" d="M515.896 321.128C514.997 321.016 514.155 320.96 513.256 320.847C514.099 320.903 514.997 321.016 515.896 321.128Z" fill="#DBEDF3"/>
<path fill-rule="evenodd" clip-rule="evenodd" d="M454.825 104.313C454.769 105.098 454.713 105.827 454.656 106.613C454.713 105.884 454.769 105.098 454.825 104.313Z" fill="#DBEDF3"/>
<path fill-rule="evenodd" clip-rule="evenodd" d="M509.267 136.224L509.435 134.037C509.379 134.822 509.323 135.495 509.267 136.224Z" fill="#DBEDF3"/>
<path fill-rule="evenodd" clip-rule="evenodd" d="M454.488 116.203C454.432 116.988 454.375 117.717 454.319 118.502C454.319 117.733 454.376 116.964 454.488 116.203Z" fill="#DBEDF3"/>
<path fill-rule="evenodd" clip-rule="evenodd" d="M508.93 165.555V163.368C509.136 163.695 509.246 164.075 509.246 164.462C509.246 164.849 509.136 165.228 508.93 165.555Z" fill="#DBEDF3"/>
<path fill-rule="evenodd" clip-rule="evenodd" d="M426.621 271.607V273.85C426.388 273.523 426.262 273.131 426.262 272.729C426.262 272.327 426.388 271.935 426.621 271.607Z" fill="#DBEDF3"/>
<path fill-rule="evenodd" clip-rule="evenodd" d="M482.411 185.969C482.299 185.24 482.242 184.455 482.13 183.726C482.242 184.455 482.299 185.24 482.411 185.969Z" fill="#DBEDF3"/>
<path fill-rule="evenodd" clip-rule="evenodd" d="M20.4137 117.212C19.8519 117.997 19.0653 117.437 18.3349 117.549C19.0653 117.437 19.7395 117.324 20.4137 117.212Z" fill="#DBEDF3"/>
<path fill-rule="evenodd" clip-rule="evenodd" d="M424.542 120.353C424.598 120.97 424.654 121.587 424.767 122.204C424.654 121.587 424.598 120.97 424.542 120.353Z" fill="#DBEDF3"/>
<path fill-rule="evenodd" clip-rule="evenodd" d="M62.2143 58.4939C61.4839 58.4939 60.7535 58.55 60.0231 58.55C60.3347 58.3089 60.7154 58.1734 61.1095 58.1634C61.5036 58.1533 61.8907 58.2691 62.2143 58.4939Z" fill="#DBEDF3"/>
<path fill-rule="evenodd" clip-rule="evenodd" d="M454.432 126.971C454.375 127.644 454.319 128.26 454.263 128.933C454.375 128.26 454.375 127.644 454.432 126.971Z" fill="#DBEDF3"/>
<path fill-rule="evenodd" clip-rule="evenodd" d="M434.206 46.8288C434.262 46.2119 434.318 45.6511 434.374 45.0341C434.376 45.6364 434.32 46.2374 434.206 46.8288Z" fill="#DBEDF3"/>
<path fill-rule="evenodd" clip-rule="evenodd" d="M428.419 44.9781C428.362 45.6511 428.306 46.268 428.25 46.941C428.306 46.268 428.362 45.595 428.419 44.9781Z" fill="#DBEDF3"/>
<path fill-rule="evenodd" clip-rule="evenodd" d="M108.229 1.85071C107.498 1.96287 106.712 2.01896 105.981 2.13112C106.768 2.01896 107.498 1.96287 108.229 1.85071Z" fill="#DBEDF3"/>
<path fill-rule="evenodd" clip-rule="evenodd" d="M54.0677 58.9987C53.2811 59.0548 52.5507 59.167 51.7641 59.2231C52.5507 59.167 53.3373 59.1109 54.0677 58.9987Z" fill="#DBEDF3"/>
<path fill-rule="evenodd" clip-rule="evenodd" d="M475.894 60.9055C475.95 60.2886 476.006 59.7277 476.006 59.1108C475.95 59.7277 475.894 60.2886 475.894 60.9055Z" fill="#DBEDF3"/>
<path fill-rule="evenodd" clip-rule="evenodd" d="M428.475 234.2C428.419 234.873 428.362 235.546 428.362 236.219C428.362 235.49 428.419 234.817 428.475 234.2Z" fill="#DBEDF3"/>
<path fill-rule="evenodd" clip-rule="evenodd" d="M473.703 104.762C473.703 104.145 473.646 103.472 473.646 102.855C473.646 103.472 473.646 104.089 473.703 104.762Z" fill="#DBEDF3"/>
<path fill-rule="evenodd" clip-rule="evenodd" d="M127.162 0.336494H125.14C125.432 0.118072 125.786 0 126.151 0C126.516 0 126.871 0.118072 127.162 0.336494Z" fill="#DBEDF3"/>
<path fill-rule="evenodd" clip-rule="evenodd" d="M309.703 151.198C308.972 151.198 308.186 151.254 307.455 151.254C307.778 151.013 308.167 150.878 308.57 150.868C308.973 150.858 309.369 150.974 309.703 151.198Z" fill="#DBEDF3"/>
<path fill-rule="evenodd" clip-rule="evenodd" d="M375.157 324.661C375.607 324.652 376.057 324.67 376.505 324.717C376.055 324.729 375.604 324.71 375.157 324.661Z" fill="#DBEDF3"/>
<path fill-rule="evenodd" clip-rule="evenodd" d="M391.843 325.446C392.293 325.446 392.742 325.39 393.192 325.39C392.744 325.437 392.293 325.456 391.843 325.446Z" fill="#DBEDF3"/>
<path fill-rule="evenodd" clip-rule="evenodd" d="M130.196 325.783C130.665 325.774 131.134 325.793 131.601 325.839C131.134 325.793 130.665 325.774 130.196 325.783Z" fill="#DBEDF3"/>
<path fill-rule="evenodd" clip-rule="evenodd" d="M515.391 256.072C515.335 255.455 515.278 254.782 515.166 254.165C515.278 254.838 515.335 255.455 515.391 256.072Z" fill="#DBEDF3"/>
<path fill-rule="evenodd" clip-rule="evenodd" d="M454.993 149.291C455.05 149.908 455.106 150.525 455.162 151.086C455.106 150.469 455.05 149.852 454.993 149.291Z" fill="#DBEDF3"/>
<path fill-rule="evenodd" clip-rule="evenodd" d="M478.253 138.916C478.197 138.299 478.085 137.626 478.029 137.009C478.085 137.626 478.197 138.243 478.253 138.916Z" fill="#DBEDF3"/>
<path fill-rule="evenodd" clip-rule="evenodd" d="M133.961 326.175H135.365C134.897 326.147 134.428 326.147 133.961 326.175Z" fill="#DBEDF3"/>
<path fill-rule="evenodd" clip-rule="evenodd" d="M303.804 326.231C304.253 326.231 304.702 326.175 305.152 326.175C304.702 326.166 304.251 326.185 303.804 326.231Z" fill="#DBEDF3"/>
<path fill-rule="evenodd" clip-rule="evenodd" d="M474.433 92.1434C474.433 91.4704 474.377 90.8535 474.377 90.1805C474.433 90.8535 474.433 91.4704 474.433 92.1434Z" fill="#DBEDF3"/>
<path fill-rule="evenodd" clip-rule="evenodd" d="M484.377 326.512C484.827 326.568 485.276 326.568 485.726 326.624C485.276 326.568 484.827 326.568 484.377 326.512Z" fill="#DBEDF3"/>
<path fill-rule="evenodd" clip-rule="evenodd" d="M488.423 326.512C488.873 326.502 489.323 326.521 489.771 326.568C489.323 326.519 488.873 326.5 488.423 326.512Z" fill="#DBEDF3"/>
<path fill-rule="evenodd" clip-rule="evenodd" d="M509.379 141.44C509.323 140.823 509.323 140.15 509.267 139.533C509.323 140.206 509.379 140.823 509.379 141.44Z" fill="#DBEDF3"/>
<path fill-rule="evenodd" clip-rule="evenodd" d="M200.763 318.155C202.167 318.099 203.572 317.987 204.977 317.931C203.572 317.987 202.167 318.043 200.763 318.155Z" fill="#DBEDF3"/>
<path fill-rule="evenodd" clip-rule="evenodd" d="M116.375 86.0865C117.611 86.1987 118.791 86.3108 120.027 86.423C118.791 86.3108 117.611 86.1987 116.375 86.0865Z" fill="#DBEDF3"/>
<path fill-rule="evenodd" clip-rule="evenodd" d="M459.151 138.748C459.207 139.926 459.207 141.047 459.263 142.225C459.263 141.103 459.207 139.926 459.151 138.748Z" fill="#DBEDF3"/>
<path fill-rule="evenodd" clip-rule="evenodd" d="M484.209 320.118C485.501 320.174 486.737 320.287 488.029 320.343C486.737 320.399 485.445 320.791 484.209 320.118Z" fill="#DBEDF3"/>
<path fill-rule="evenodd" clip-rule="evenodd" d="M476.737 183.333C476.737 182.212 476.736 181.146 476.793 180.024C476.736 181.146 476.737 182.212 476.737 183.333Z" fill="#DBEDF3"/>
<path fill-rule="evenodd" clip-rule="evenodd" d="M473.478 217.992C474.602 217.992 475.725 218.048 476.793 218.048C475.725 218.048 474.602 217.992 473.478 217.992Z" fill="#DBEDF3"/>
<path fill-rule="evenodd" clip-rule="evenodd" d="M193.515 198.588C193.459 199.429 193.459 200.27 193.459 201.111C193.459 200.27 193.515 199.429 193.515 198.588Z" fill="#DBEDF3"/>
<path fill-rule="evenodd" clip-rule="evenodd" d="M492.018 162.975C491.962 163.817 491.906 164.658 491.906 165.499C491.906 164.658 491.962 163.817 492.018 162.975Z" fill="#DBEDF3"/>
<path fill-rule="evenodd" clip-rule="evenodd" d="M468.253 316.417C469.039 316.361 469.882 316.305 470.669 316.249C470.107 316.697 469.489 316.753 468.253 316.417Z" fill="#DBEDF3"/>
<path fill-rule="evenodd" clip-rule="evenodd" d="M462.859 207.056L463.028 209.748L462.859 207.056Z" fill="#DBEDF3"/>
<path fill-rule="evenodd" clip-rule="evenodd" d="M463.814 218.161L466.848 218.104C466.382 218.348 465.864 218.48 465.338 218.49C464.811 218.5 464.29 218.387 463.814 218.161Z" fill="#DBEDF3"/>
<path fill-rule="evenodd" clip-rule="evenodd" d="M231.271 316.753C232.282 316.753 233.237 316.753 234.248 316.809C233.791 317.063 233.275 317.191 232.752 317.181C232.229 317.171 231.718 317.024 231.271 316.753Z" fill="#DBEDF3"/>
<path fill-rule="evenodd" clip-rule="evenodd" d="M45.8649 319.614C46.8762 319.501 47.8875 319.445 48.8426 319.333C47.8313 319.445 46.82 319.558 45.8649 319.614Z" fill="#DBEDF3"/>
<path fill-rule="evenodd" clip-rule="evenodd" d="M459.544 146.207L459.713 148.899C459.601 148.006 459.544 147.107 459.544 146.207Z" fill="#DBEDF3"/>
<path fill-rule="evenodd" clip-rule="evenodd" d="M140.647 88.2176C141.031 88.0019 141.463 87.884 141.904 87.8742C142.345 87.8644 142.781 87.9631 143.175 88.1615C142.332 88.1615 141.489 88.1615 140.647 88.2176Z" fill="#DBEDF3"/>
<path fill-rule="evenodd" clip-rule="evenodd" d="M431.958 156.638C432.014 157.423 432.071 158.152 432.183 158.938C432.127 158.152 432.071 157.423 431.958 156.638Z" fill="#DBEDF3"/>
<path fill-rule="evenodd" clip-rule="evenodd" d="M503.143 138.804C502.936 138.466 502.827 138.078 502.827 137.682C502.827 137.287 502.936 136.898 503.143 136.561V138.804Z" fill="#DBEDF3"/>
<path fill-rule="evenodd" clip-rule="evenodd" d="M489.827 217.656C490.67 217.375 491.569 217.039 492.412 217.656H489.827Z" fill="#DBEDF3"/>
<path fill-rule="evenodd" clip-rule="evenodd" d="M209.696 317.819C210.595 317.763 211.438 317.651 212.337 317.595C211.438 317.651 210.595 317.707 209.696 317.819Z" fill="#DBEDF3"/>
<path fill-rule="evenodd" clip-rule="evenodd" d="M90.1375 317.819C90.9241 317.482 91.7107 317.258 92.4972 317.819H90.1375Z" fill="#DBEDF3"/>
<path fill-rule="evenodd" clip-rule="evenodd" d="M253.575 316.697C254.418 316.305 255.261 316.136 256.104 316.697H253.575Z" fill="#DBEDF3"/>
<path fill-rule="evenodd" clip-rule="evenodd" d="M63.3941 206.327C63.4503 207.112 63.5065 207.841 63.5627 208.627C63.5065 207.897 63.4503 207.112 63.3941 206.327Z" fill="#DBEDF3"/>
<path fill-rule="evenodd" clip-rule="evenodd" d="M261.722 162.022C262.565 161.742 263.408 161.573 264.25 162.078C263.408 162.022 262.565 162.022 261.722 162.022Z" fill="#DBEDF3"/>
<path fill-rule="evenodd" clip-rule="evenodd" d="M459.488 184.904C459.544 185.633 459.6 186.418 459.6 187.147C459.6 186.418 459.544 185.689 459.488 184.904Z" fill="#DBEDF3"/>
<path fill-rule="evenodd" clip-rule="evenodd" d="M62.8323 116.988C62.7886 117.59 62.7136 118.189 62.6076 118.783C62.7136 118.189 62.7886 117.59 62.8323 116.988Z" fill="#DBEDF3"/>
<path fill-rule="evenodd" clip-rule="evenodd" d="M14.1212 292.806C14.065 293.423 14.0088 293.984 14.0088 294.601C14.0088 293.984 14.065 293.423 14.1212 292.806Z" fill="#DBEDF3"/>
<path fill-rule="evenodd" clip-rule="evenodd" d="M477.13 188.885L476.961 187.035C477.017 187.708 477.074 188.269 477.13 188.885Z" fill="#DBEDF3"/>
<path fill-rule="evenodd" clip-rule="evenodd" d="M415.89 315.52H418.137C417.407 315.576 416.62 315.52 415.89 315.52Z" fill="#DBEDF3"/>
<path fill-rule="evenodd" clip-rule="evenodd" d="M193.234 203.803C193.347 204.252 193.515 204.701 193.628 205.149C192.729 205.374 192.616 204.925 193.234 203.803Z" fill="#DBEDF3"/>
<path fill-rule="evenodd" clip-rule="evenodd" d="M249.418 161.013H251.721C250.935 161.349 250.148 161.573 249.418 161.013Z" fill="#DBEDF3"/>
<path fill-rule="evenodd" clip-rule="evenodd" d="M63.7874 209.972C63.7874 210.645 63.8436 211.318 63.8436 211.991C63.8436 211.318 63.8436 210.645 63.7874 209.972Z" fill="#DBEDF3"/>
<path fill-rule="evenodd" clip-rule="evenodd" d="M433.812 217.095C433.812 217.712 433.868 218.329 433.868 218.946C433.868 218.329 433.868 217.712 433.812 217.095Z" fill="#DBEDF3"/>
<path fill-rule="evenodd" clip-rule="evenodd" d="M56.2588 319.277C56.5767 319.045 56.9604 318.919 57.3544 318.919C57.7484 318.919 58.1321 319.045 58.45 319.277H56.2588Z" fill="#DBEDF3"/>
<path fill-rule="evenodd" clip-rule="evenodd" d="M75.2489 108.351C75.3051 108.968 75.3051 109.641 75.3612 110.258C75.3612 109.585 75.3051 108.968 75.2489 108.351Z" fill="#DBEDF3"/>
<path fill-rule="evenodd" clip-rule="evenodd" d="M52.4945 319.333H54.7419C54.4306 319.604 54.0314 319.754 53.6182 319.754C53.205 319.754 52.8058 319.604 52.4945 319.333Z" fill="#DBEDF3"/>
<path fill-rule="evenodd" clip-rule="evenodd" d="M123.567 87.2081C124.297 87.3203 125.027 87.3764 125.702 87.4886C124.971 87.3764 124.241 87.2642 123.567 87.2081Z" fill="#DBEDF3"/>
<path fill-rule="evenodd" clip-rule="evenodd" d="M60.1917 142.674C60.1917 143.29 60.1917 143.851 60.2479 144.468C60.1917 143.851 60.1917 143.234 60.1917 142.674Z" fill="#DBEDF3"/>
<path fill-rule="evenodd" clip-rule="evenodd" d="M472.972 142.561C472.916 141.945 472.916 141.328 472.86 140.711C472.916 141.328 472.916 141.945 472.972 142.561Z" fill="#DBEDF3"/>
<path fill-rule="evenodd" clip-rule="evenodd" d="M305.489 318.66C306.388 318.716 307.287 318.828 308.13 318.885C307.287 318.828 306.388 318.716 305.489 318.66Z" fill="#DBEDF3"/>
<path fill-rule="evenodd" clip-rule="evenodd" d="M302.567 295.722H301.163C301.629 295.779 302.101 295.779 302.567 295.722Z" fill="#DBEDF3"/>
<path fill-rule="evenodd" clip-rule="evenodd" d="M302.567 318.268C303.298 318.324 304.028 318.436 304.815 318.492C304.084 318.436 303.354 318.38 302.567 318.268Z" fill="#DBEDF3"/>
<path fill-rule="evenodd" clip-rule="evenodd" d="M168.851 268.354C169.806 273.794 161.322 279.122 160.648 271.383C160.423 268.523 162.277 266.56 164.412 264.821C167.446 262.353 169.132 264.709 168.851 268.354Z" fill="#DBEDF3"/>
<path fill-rule="evenodd" clip-rule="evenodd" d="M75.2489 201.784C77.2715 202.626 92.5534 207.561 84.5753 210.085C82.4965 210.758 79.2941 210.87 77.4962 209.692C75.3051 208.29 73.1139 204.14 75.2489 201.784Z" fill="#DBEDF3"/>
<path fill-rule="evenodd" clip-rule="evenodd" d="M79.0132 127.98C84.1821 127.363 88.9577 135.888 82.6089 135.607C77.9457 135.383 71.7093 127.98 79.0132 127.98Z" fill="#DBEDF3"/>
<path fill-rule="evenodd" clip-rule="evenodd" d="M97.6099 148.787C101.936 152.544 93.9018 161.013 90.6994 157.76C89.07 156.077 90.587 152.488 91.9354 151.086C93.2838 149.684 95.7559 149.403 97.6099 148.787Z" fill="#DBEDF3"/>
<path fill-rule="evenodd" clip-rule="evenodd" d="M110.476 246.594C107.892 246.987 96.6548 250.688 99.0145 244.015C99.9134 241.491 102.386 242.22 104.689 242.332C108.397 242.5 110.476 242.332 110.476 246.594Z" fill="#DBEDF3"/>
<path fill-rule="evenodd" clip-rule="evenodd" d="M103.06 263.755C106.88 265.774 101.318 277.215 98.1156 274.804C93.7333 271.439 99.7449 264.765 103.06 263.755Z" fill="#DBEDF3"/>
<path fill-rule="evenodd" clip-rule="evenodd" d="M119.746 254.558C121.6 253.773 130.365 262.241 127.05 264.541C125.365 265.718 122.106 263.699 121.038 262.466C119.128 260.166 118.96 257.25 119.746 254.558Z" fill="#DBEDF3"/>
<path fill-rule="evenodd" clip-rule="evenodd" d="M69.1249 185.689C71.0351 186.025 74.2938 186.081 74.4623 188.773C74.5747 191.129 71.5969 191.858 69.5743 192.082C67.4394 192.25 64.574 191.69 64.5178 188.942C64.4616 186.025 69.0687 186.194 69.1249 185.689Z" fill="#DBEDF3"/>
<path fill-rule="evenodd" clip-rule="evenodd" d="M116.038 301.836C118.061 303.069 127.5 307.5 123.454 310.696C121.937 311.874 117.33 309.407 116.319 308.173C115.083 306.659 113.903 303.125 116.038 301.836Z" fill="#DBEDF3"/>
<path fill-rule="evenodd" clip-rule="evenodd" d="M142.332 269.756C142.051 264.877 150.31 262.914 148.568 269.868C148.063 271.831 147.613 274.804 145.197 274.916C142.332 275.028 142.22 271.663 142.332 269.756Z" fill="#DBEDF3"/>
<path fill-rule="evenodd" clip-rule="evenodd" d="M116.881 184.904C116.937 188.605 109.858 191.858 109.802 186.025C109.689 180.754 117.106 179.239 116.881 184.904Z" fill="#DBEDF3"/>
<path fill-rule="evenodd" clip-rule="evenodd" d="M112.161 165.611C113.903 166.172 116.263 166.453 116.375 168.696C116.544 171.051 114.353 172.117 112.386 171.949C110.757 171.836 108.397 170.659 108.116 168.92C107.667 166.34 110.195 166.172 112.161 165.611Z" fill="#DBEDF3"/>
<path fill-rule="evenodd" clip-rule="evenodd" d="M79.6312 233.359C79.575 230.33 85.7552 226.629 86.8789 230.162C87.216 231.284 84.3506 236.387 83.3955 236.78C80.811 237.789 80.4739 235.49 79.6312 233.359Z" fill="#DBEDF3"/>
<path fill-rule="evenodd" clip-rule="evenodd" d="M129.859 284.226C127.78 286.076 121.544 291.292 122.05 284.282C122.331 279.851 130.421 280.076 129.859 284.226Z" fill="#DBEDF3"/>
<path fill-rule="evenodd" clip-rule="evenodd" d="M231.102 304.191C231.776 301.275 241.496 306.322 238.237 310.08C237.17 311.313 234.304 310.192 233.181 309.463C231.102 307.948 231.046 306.602 231.102 304.191Z" fill="#DBEDF3"/>
<path fill-rule="evenodd" clip-rule="evenodd" d="M176.941 241.323C177.334 240.033 177.728 237.677 179.02 236.892C181.267 235.378 183.234 237.677 183.234 240.089C183.234 244.519 178.121 245.921 176.941 241.323Z" fill="#DBEDF3"/>
<path fill-rule="evenodd" clip-rule="evenodd" d="M152.838 293.704C155.367 294.264 160.985 300.433 157.726 302.901C154.58 305.313 150.422 295.554 152.838 293.704Z" fill="#DBEDF3"/>
<path fill-rule="evenodd" clip-rule="evenodd" d="M155.254 247.38C158.513 247.66 162.951 252.876 157.895 253.717C153.962 254.334 149.355 248.669 155.254 247.38Z" fill="#DBEDF3"/>
<path fill-rule="evenodd" clip-rule="evenodd" d="M184.638 271.495C185.425 268.747 193.515 271.663 193.066 274.692C192.841 276.318 189.526 276.654 187.785 276.262C185.256 275.645 184.582 273.963 184.638 271.495Z" fill="#DBEDF3"/>
<path fill-rule="evenodd" clip-rule="evenodd" d="M89.7442 118.614C89.8004 115.081 96.5986 113.623 97.1043 117.212C97.5537 120.409 89.6319 123.83 89.7442 118.614Z" fill="#DBEDF3"/>
<path fill-rule="evenodd" clip-rule="evenodd" d="M182.391 307.948C182.897 306.154 183.121 304.023 185.312 303.798C187.841 303.518 187.784 305.481 187.504 307.5C186.661 312.996 183.571 313.276 182.391 307.948Z" fill="#DBEDF3"/>
<path fill-rule="evenodd" clip-rule="evenodd" d="M74.7994 160.732C71.2598 161.517 64.7426 154.731 68.7316 153.217C71.5408 152.208 74.7994 158.657 74.7994 160.732Z" fill="#DBEDF3"/>
<path fill-rule="evenodd" clip-rule="evenodd" d="M120.083 213.73C118.285 214.571 117.836 215.076 116.488 213.674C115.252 212.44 115.308 209.075 116.375 207.841C120.364 203.018 120.252 211.823 120.083 213.73Z" fill="#DBEDF3"/>
<path fill-rule="evenodd" clip-rule="evenodd" d="M134.86 203.972C136.77 204.196 142.332 209.524 139.41 211.599C135.871 214.179 133.848 206.103 134.86 203.972Z" fill="#DBEDF3"/>
<path fill-rule="evenodd" clip-rule="evenodd" d="M175.649 205.318C174.3 210.589 170.873 207.056 171.042 203.074C171.323 196.681 174.918 202.233 175.649 205.318Z" fill="#DBEDF3"/>
<path fill-rule="evenodd" clip-rule="evenodd" d="M196.437 289.946C198.74 290.899 201.887 299.76 198.572 300.209C194.864 300.714 196.1 291.797 196.437 289.946Z" fill="#DBEDF3"/>
<path fill-rule="evenodd" clip-rule="evenodd" d="M167.502 284.955C170.143 284.057 171.154 289.666 169.581 290.675C166.154 292.974 166.884 286.301 167.502 284.955Z" fill="#DBEDF3"/>
<path fill-rule="evenodd" clip-rule="evenodd" d="M142.332 269.756C142.276 270.485 142.276 271.214 142.22 272C142.276 271.214 142.276 270.485 142.332 269.756Z" fill="#DBEDF3"/>
<path fill-rule="evenodd" clip-rule="evenodd" d="M231.102 304.191C231.102 304.976 231.046 305.705 231.046 306.49C231.046 305.705 231.102 304.92 231.102 304.191Z" fill="#DBEDF3"/>
<path fill-rule="evenodd" clip-rule="evenodd" d="M184.638 271.495C184.638 272.112 184.582 272.785 184.582 273.402C184.582 272.785 184.638 272.168 184.638 271.495Z" fill="#DBEDF3"/>
<path fill-rule="evenodd" clip-rule="evenodd" d="M478.029 260.391C483.535 260.222 489.659 258.147 495.052 258.82C496.513 258.989 499.94 259.381 497.581 261.568C496.457 262.634 491.007 262.073 489.322 262.41C479.209 264.541 467.747 265.943 457.409 265.718C452.578 265.662 447.69 265.27 442.858 264.989C438.026 264.709 437.52 262.746 442.97 262.129C448.645 261.456 454.432 261.737 460.106 261.737C466.118 261.793 472.073 260.783 478.029 260.391Z" fill="#DBEDF3"/>
<path fill-rule="evenodd" clip-rule="evenodd" d="M490.108 247.155C489.603 248.669 489.097 252.09 487.074 252.315C484.209 252.651 483.759 247.772 483.872 245.977C483.984 243.846 484.771 240.257 487.468 240.986C489.715 241.659 489.94 245.473 490.108 247.155Z" fill="#DBEDF3"/>
<path fill-rule="evenodd" clip-rule="evenodd" d="M472.916 246.09C473.309 244.463 473.534 240.874 475.838 240.706C478.366 240.594 479.096 244.351 479.096 246.146C479.096 247.884 478.422 251.137 476.399 251.53C473.646 252.09 473.365 247.94 472.916 246.09Z" fill="#DBEDF3"/>
<path fill-rule="evenodd" clip-rule="evenodd" d="M444.262 248.95C443.42 250.913 442.914 253.549 440.33 252.259C438.363 251.249 438.082 247.099 438.475 245.248C438.869 243.285 439.655 241.042 441.903 241.939C444.487 242.949 444.262 246.819 444.262 248.95Z" fill="#DBEDF3"/>
<path fill-rule="evenodd" clip-rule="evenodd" d="M465.949 247.155C463.533 254.558 459.039 249.567 460.78 244.015C462.522 238.294 465.725 243.902 465.949 247.155Z" fill="#DBEDF3"/>
<path fill-rule="evenodd" clip-rule="evenodd" d="M454.094 247.548C453.42 248.838 452.69 251.642 450.892 251.361C448.645 251.025 448.588 246.707 448.813 245.08C449.038 243.678 449.656 241.323 451.51 241.379C454.207 241.435 454.038 245.865 454.094 247.548Z" fill="#DBEDF3"/>
<path fill-rule="evenodd" clip-rule="evenodd" d="M502.693 248.95C500.895 252.988 498.367 249.511 499.154 246.65C500.39 242.332 502.581 246.146 502.693 248.95Z" fill="#DBEDF3"/>
<path fill-rule="evenodd" clip-rule="evenodd" d="M458.252 261.793H452.297C454.253 261.316 456.296 261.316 458.252 261.793Z" fill="#DBEDF3"/>
<path fill-rule="evenodd" clip-rule="evenodd" d="M497.637 258.82C495.895 258.82 494.21 258.82 492.468 258.876C494.144 258.325 495.949 258.306 497.637 258.82Z" fill="#DBEDF3"/>
<path fill-rule="evenodd" clip-rule="evenodd" d="M478.029 260.391C476.68 260.503 475.276 260.559 473.927 260.671C475.276 260.615 476.624 260.503 478.029 260.391Z" fill="#DBEDF3"/>
<path fill-rule="evenodd" clip-rule="evenodd" d="M444.262 248.95C444.262 247.94 444.262 246.987 444.206 245.977C444.45 246.433 444.582 246.94 444.592 247.457C444.602 247.974 444.489 248.485 444.262 248.95Z" fill="#DBEDF3"/>
<path fill-rule="evenodd" clip-rule="evenodd" d="M448.251 261.849C447.128 261.961 446.004 262.017 444.88 262.129C446.004 262.073 447.128 261.961 448.251 261.849Z" fill="#DBEDF3"/>
<path fill-rule="evenodd" clip-rule="evenodd" d="M463.477 261.793H460.162C460.683 261.557 461.248 261.435 461.82 261.435C462.391 261.435 462.957 261.557 463.477 261.793Z" fill="#DBEDF3"/>
<path fill-rule="evenodd" clip-rule="evenodd" d="M454.094 247.548C454.094 246.538 454.038 245.473 454.038 244.463C454.038 245.473 454.038 246.538 454.094 247.548Z" fill="#DBEDF3"/>
<path fill-rule="evenodd" clip-rule="evenodd" d="M438.476 245.248V248.277C438.419 247.268 438.419 246.257 438.476 245.248Z" fill="#DBEDF3"/>
<path fill-rule="evenodd" clip-rule="evenodd" d="M484.321 260.054C483.366 260.166 482.355 260.222 481.4 260.335C482.355 260.222 483.366 260.11 484.321 260.054Z" fill="#DBEDF3"/>
<path fill-rule="evenodd" clip-rule="evenodd" d="M502.693 248.95C502.637 248.053 502.637 247.211 502.581 246.314C502.637 247.211 502.693 248.109 502.693 248.95Z" fill="#DBEDF3"/>
<path fill-rule="evenodd" clip-rule="evenodd" d="M460.949 265.775C461.623 265.775 462.297 265.775 462.971 265.718C462.353 265.775 461.679 265.775 460.949 265.775Z" fill="#DBEDF3"/>
<path fill-rule="evenodd" clip-rule="evenodd" d="M490.108 247.155C490.052 246.538 489.996 245.921 489.94 245.248C489.996 245.921 490.052 246.538 490.108 247.155Z" fill="#DBEDF3"/>
<path fill-rule="evenodd" clip-rule="evenodd" d="M465.949 247.155C465.893 246.482 465.837 245.865 465.837 245.192C465.837 245.865 465.893 246.538 465.949 247.155Z" fill="#DBEDF3"/>
<path fill-rule="evenodd" clip-rule="evenodd" d="M113.903 57.3162C111.206 56.5871 110.701 52.8296 111.15 50.5302C111.656 49.4086 112.105 48.2869 112.611 47.1653C112.442 46.7727 112.218 46.3241 112.049 45.9315C112.274 43.6321 111.656 42.6226 114.296 43.576C119.184 45.3146 119.971 57.148 113.903 57.3162Z" fill="#DBEDF3"/>
<path fill-rule="evenodd" clip-rule="evenodd" d="M153.625 50.0255C155.816 49.8573 159.861 52.4371 157.67 54.9047C156.322 56.4189 151.827 55.6898 149.973 56.0263C147.557 56.475 145.029 57.0358 146.321 53.3905C147.332 50.5863 151.04 49.9694 153.625 50.0255Z" fill="#DBEDF3"/>
<path fill-rule="evenodd" clip-rule="evenodd" d="M151.321 67.1306C149.074 65.336 150.085 57.148 153.513 58.6061C156.996 60.1203 153.175 65.9529 151.321 67.1306Z" fill="#DBEDF3"/>
<path fill-rule="evenodd" clip-rule="evenodd" d="M111.15 50.5302V53.11C110.902 52.7252 110.771 52.2775 110.771 51.8201C110.771 51.3628 110.902 50.915 111.15 50.5302Z" fill="#DBEDF3"/>
<path fill-rule="evenodd" clip-rule="evenodd" d="M113.903 57.3162C114.353 57.3255 114.804 57.3068 115.252 57.2601C114.804 57.3068 114.353 57.3255 113.903 57.3162Z" fill="#DBEDF3"/>
<path fill-rule="evenodd" clip-rule="evenodd" d="M391.281 293.255C391.057 296.956 387.068 294.208 387.348 291.741C387.91 287.198 390.439 291.685 391.281 293.255Z" fill="#DBEDF3"/>
</g>
<defs>
<clipPath id="clip0_298_10267">
<rect width="536" height="331" fill="white"/>
</clipPath>
</defs>
</svg>
